ply
format ascii 1.0
element vertex 343
property float end_x
property float end_y
property float end_z
property int path_id
property int group_id
end_header
1.807327 -4.121113 0.000000 0 0
2.125555 -3.966360 0.000000 1 0
2.430641 -3.787081 0.000000 2 0
2.720696 -3.584385 0.000000 3 0
2.993928 -3.359523 0.000000 4 0
3.248646 -3.113888 0.000000 5 0
3.483276 -2.848998 0.000000 6 0
2.291588 -3.872806 0.000000 7 0
2.588809 -3.680770 0.000000 8 0
2.870021 -3.465974 0.000000 9 0
3.133487 -3.229746 0.000000 10 0
3.377577 -2.973546 0.000000 11 0
3.600780 -2.698959 0.000000 12 0
3.801718 -2.407683 0.000000 13 0
2.742333 -3.567858 0.000000 14 0
3.014199 -3.341347 0.000000 15 0
3.267427 -3.094176 0.000000 16 0
3.500450 -2.827871 0.000000 17 0
3.711827 -2.544079 0.000000 18 0
3.900252 -2.244556 0.000000 19 0
4.064560 -1.931154 0.000000 20 0
3.152971 -3.210728 0.000000 21 0
3.395506 -2.953056 0.000000 22 0
3.617044 -2.677123 0.000000 23 0
3.816216 -2.384637 0.000000 24 0
3.991790 -2.077404 0.000000 25 0
4.142681 -1.757326 0.000000 26 0
4.267955 -1.426381 0.000000 27 0
3.517495 -2.806640 0.000000 28 0
3.727152 -2.521575 0.000000 29 0
3.913761 -2.220917 0.000000 30 0
4.076169 -1.906526 0.000000 31 0
4.213372 -1.580346 0.000000 32 0
4.324521 -1.244394 0.000000 33 0
4.408929 -0.900747 0.000000 34 0
3.830575 -2.361503 0.000000 35 0
4.004287 -2.053214 0.000000 36 0
4.153238 -1.732229 0.000000 37 0
4.276507 -1.400532 0.000000 38 0
4.373332 -1.060175 0.000000 39 0
4.443113 -0.713262 0.000000 40 0
4.485421 -0.361939 0.000000 41 0
4.087630 -1.881829 0.000000 42 0
4.222857 -1.554825 0.000000 43 0
4.331971 -1.218206 0.000000 44 0
4.414298 -0.874055 0.000000 45 0
4.469329 -0.524498 0.000000 46 0
4.496723 -0.171699 0.000000 47 0
4.496311 0.182163 0.000000 48 0
2.538894 -3.715376 0.000000 49 1
2.822980 -3.504395 0.000000 50 1
3.089610 -3.271744 0.000000 51 1
3.337136 -3.018862 0.000000 52 1
3.564025 -2.747312 0.000000 53 1
3.768876 -2.458775 0.000000 54 1
3.950422 -2.155033 0.000000 55 1
2.968827 -3.381725 0.000000 56 1
3.225368 -3.137994 0.000000 57 1
3.461964 -2.874858 0.000000 58 1
3.677152 -2.593945 0.000000 59 1
3.869603 -2.296993 0.000000 60 1
4.038125 -1.985837 0.000000 61 1
4.181677 -1.662401 0.000000 62 1
3.355340 -2.998615 0.000000 63 1
3.580582 -2.725698 0.000000 64 1
3.783684 -2.435926 0.000000 65 1
3.963389 -2.131091 0.000000 66 1
4.118585 -1.813079 0.000000 67 1
4.248314 -1.483855 0.000000 68 1
4.351773 -1.145456 0.000000 69 1
3.692779 -2.571650 0.000000 70 1
3.883429 -2.273538 0.000000 71 1
4.050066 -1.961368 0.000000 72 1
4.191659 -1.637069 0.000000 73 1
4.307332 -1.302648 0.000000 74 1
4.396370 -0.960171 0.000000 75 1
4.458223 -0.611758 0.000000 76 1
3.976210 -2.107072 0.000000 77 1
4.129480 -1.788127 0.000000 78 1
4.257214 -1.458124 0.000000 79 1
4.358624 -1.119104 0.000000 80 1
4.433082 -0.773165 0.000000 81 1
4.480127 -0.422445 0.000000 82 1
4.499469 -0.069112 0.000000 83 1
4.201487 -1.611678 0.000000 84 1
4.315135 -1.276563 0.000000 85 1
4.402099 -0.933554 0.000000 86 1
4.461843 -0.584772 0.000000 87 1
4.493996 -0.232374 0.000000 88 1
4.498361 0.121460 0.000000 89 1
4.474909 0.474544 0.000000 90 1
4.365316 -1.092712 0.000000 91 1
4.437679 -0.746329 0.000000 92 1
4.482601 -0.395330 0.000000 93 1
4.499805 -0.041887 0.000000 94 1
4.489184 0.311815 0.000000 95 1
4.450803 0.663589 0.000000 96 1
4.384901 1.011259 0.000000 97 1
3.182721 -3.181240 0.000000 98 2
3.422847 -2.921322 0.000000 99 2
3.641807 -2.643339 0.000000 100 2
3.838248 -2.349011 0.000000 101 2
4.010955 -2.040158 0.000000 102 2
4.158859 -1.718689 0.000000 103 2
4.281047 -1.386592 0.000000 104 2
3.543468 -2.773776 0.000000 105 2
3.750462 -2.486772 0.000000 106 2
3.934265 -2.184390 0.000000 107 2
4.093739 -1.868502 0.000000 108 2
4.227900 -1.541059 0.000000 109 2
4.335917 -1.204086 0.000000 110 2
4.417122 -0.859668 0.000000 111 2
3.852390 -2.325745 0.000000 112 2
4.023225 -2.015852 0.000000 113 2
4.169182 -1.693494 0.000000 114 2
4.289358 -1.360665 0.000000 115 2
4.383010 -1.019421 0.000000 116 2
4.449560 -0.671874 0.000000 117 2
4.488596 -0.320172 0.000000 118 2
4.104970 -1.843698 0.000000 119 2
4.237147 -1.515450 0.000000 120 2
4.343123 -1.177830 0.000000 121 2
4.422243 -0.832927 0.000000 122 2
4.474018 -0.482874 0.000000 123 2
4.498127 -0.129834 0.000000 124 2
4.494421 0.224008 0.000000 125 2
4.297512 -1.334687 0.000000 126 2
4.389098 -0.992883 0.000000 127 2
4.453544 -0.644940 0.000000 128 2
4.490451 -0.293008 0.000000 129 2
4.499590 0.060736 0.000000 130 2
4.480906 0.414104 0.000000 131 2
4.434514 0.764911 0.000000 132 2
4.427202 -0.806155 0.000000 133 2
4.476857 -0.455795 0.000000 134 2
4.498830 -0.102616 0.000000 135 2
4.492983 0.251197 0.000000 136 2
4.459354 0.603457 0.000000 137 2
4.398150 0.951985 0.000000 138 2
4.309750 1.294627 0.000000 139 2
4.492141 -0.265833 0.000000 140 2
4.499140 0.087959 0.000000 141 2
4.478318 0.441207 0.000000 142 2
4.429804 0.791728 0.000000 143 2
4.353898 1.137352 0.000000 144 2
4.251069 1.475943 0.000000 145 2
4.121954 1.805408 0.000000 146 2
3.716557 -2.537165 0.000000 147 3
3.904424 -2.237291 0.000000 148 3
4.068148 -1.923584 0.000000 149 3
4.206716 -1.597981 0.000000 150 3
4.319271 -1.262498 0.000000 151 3
4.405117 -0.919207 0.000000 152 3
4.463724 -0.570233 0.000000 153 3
3.995651 -2.069969 0.000000 154 3
4.145945 -1.749611 0.000000 155 3
4.270603 -1.418433 0.000000 156 3
4.368852 -1.078485 0.000000 157 3
4.440087 -0.731867 0.000000 158 3
4.483865 -0.380724 0.000000 159 3
4.499918 -0.027227 0.000000 160 3
4.216307 -1.572500 0.000000 161 3
4.326830 -1.236341 0.000000 162 3
4.410598 -0.892537 0.000000 163 3
4.467093 -0.543215 0.000000 164 3
4.495965 -0.190533 0.000000 165 3
4.497035 0.163327 0.000000 166 3
4.470298 0.516177 0.000000 167 3
4.375298 -1.052031 0.000000 168 3
4.444434 -0.704989 0.000000 169 3
4.486087 -0.353588 0.000000 170 3
4.500000 -0.000000 0.000000 171 3
4.486087 0.353588 0.000000 172 3
4.444434 0.704989 0.000000 173 3
4.375298 1.052031 0.000000 174 3
4.470298 -0.516177 0.000000 175 3
4.497035 -0.163327 0.000000 176 3
4.495965 0.190533 0.000000 177 3
4.467093 0.543215 0.000000 178 3
4.410598 0.892537 0.000000 179 3
4.326830 1.236341 0.000000 180 3
4.216307 1.572500 0.000000 181 3
4.499918 0.027227 0.000000 182 3
4.483865 0.380724 0.000000 183 3
4.440087 0.731867 0.000000 184 3
4.368852 1.078485 0.000000 185 3
4.270603 1.418433 0.000000 186 3
4.145945 1.749611 0.000000 187 3
3.995651 2.069969 0.000000 188 3
4.463724 0.570233 0.000000 189 3
4.405117 0.919207 0.000000 190 3
4.319271 1.262498 0.000000 191 3
4.206716 1.597981 0.000000 192 3
4.068148 1.923584 0.000000 193 3
3.904424 2.237291 0.000000 194 3
3.716557 2.537165 0.000000 195 3
4.121954 -1.805408 0.000000 196 4
4.251069 -1.475943 0.000000 197 4
4.353898 -1.137352 0.000000 198 4
4.429804 -0.791728 0.000000 199 4
4.478318 -0.441207 0.000000 200 4
4.499140 -0.087959 0.000000 201 4
4.492141 0.265833 0.000000 202 4
4.309750 -1.294627 0.000000 203 4
4.398150 -0.951985 0.000000 204 4
4.459354 -0.603457 0.000000 205 4
4.492983 -0.251197 0.000000 206 4
4.498830 0.102616 0.000000 207 4
4.476857 0.455795 0.000000 208 4
4.427202 0.806155 0.000000 209 4
4.434514 -0.764911 0.000000 210 4
4.480906 -0.414104 0.000000 211 4
4.499590 -0.060736 0.000000 212 4
4.490451 0.293008 0.000000 213 4
4.453544 0.644940 0.000000 214 4
4.389098 0.992883 0.000000 215 4
4.297512 1.334687 0.000000 216 4
4.494421 -0.224008 0.000000 217 4
4.498127 0.129834 0.000000 218 4
4.474018 0.482874 0.000000 219 4
4.422243 0.832927 0.000000 220 4
4.343123 1.177830 0.000000 221 4
4.237147 1.515450 0.000000 222 4
4.104970 1.843698 0.000000 223 4
4.488596 0.320172 0.000000 224 4
4.449560 0.671874 0.000000 225 4
4.383010 1.019421 0.000000 226 4
4.289358 1.360665 0.000000 227 4
4.169182 1.693494 0.000000 228 4
4.023225 2.015852 0.000000 229 4
3.852390 2.325745 0.000000 230 4
4.417122 0.859668 0.000000 231 4
4.335917 1.204086 0.000000 232 4
4.227900 1.541059 0.000000 233 4
4.093739 1.868502 0.000000 234 4
3.934265 2.184390 0.000000 235 4
3.750462 2.486772 0.000000 236 4
3.543468 2.773776 0.000000 237 4
4.281047 1.386592 0.000000 238 4
4.158859 1.718689 0.000000 239 4
4.010955 2.040158 0.000000 240 4
3.838248 2.349011 0.000000 241 4
3.641807 2.643339 0.000000 242 4
3.422847 2.921322 0.000000 243 4
3.182721 3.181240 0.000000 244 4
4.384901 -1.011259 0.000000 245 5
4.450803 -0.663589 0.000000 246 5
4.489184 -0.311815 0.000000 247 5
4.499805 0.041887 0.000000 248 5
4.482601 0.395330 0.000000 249 5
4.437679 0.746329 0.000000 250 5
4.365316 1.092712 0.000000 251 5
4.474909 -0.474544 0.000000 252 5
4.498361 -0.121460 0.000000 253 5
4.493996 0.232374 0.000000 254 5
4.461843 0.584772 0.000000 255 5
4.402099 0.933554 0.000000 256 5
4.315135 1.276563 0.000000 257 5
4.201487 1.611678 0.000000 258 5
4.499469 0.069112 0.000000 259 5
4.480127 0.422445 0.000000 260 5
4.433082 0.773165 0.000000 261 5
4.358624 1.119104 0.000000 262 5
4.257214 1.458124 0.000000 263 5
4.129480 1.788127 0.000000 264 5
3.976210 2.107072 0.000000 265 5
4.458223 0.611758 0.000000 266 5
4.396370 0.960171 0.000000 267 5
4.307332 1.302648 0.000000 268 5
4.191659 1.637069 0.000000 269 5
4.050066 1.961368 0.000000 270 5
3.883429 2.273538 0.000000 271 5
3.692779 2.571650 0.000000 272 5
4.351773 1.145456 0.000000 273 5
4.248314 1.483855 0.000000 274 5
4.118585 1.813079 0.000000 275 5
3.963389 2.131091 0.000000 276 5
3.783684 2.435926 0.000000 277 5
3.580582 2.725698 0.000000 278 5
3.355340 2.998615 0.000000 279 5
4.181677 1.662401 0.000000 280 5
4.038125 1.985837 0.000000 281 5
3.869603 2.296993 0.000000 282 5
3.677152 2.593945 0.000000 283 5
3.461964 2.874858 0.000000 284 5
3.225368 3.137994 0.000000 285 5
2.968827 3.381725 0.000000 286 5
3.950422 2.155033 0.000000 287 5
3.768876 2.458775 0.000000 288 5
3.564025 2.747312 0.000000 289 5
3.337136 3.018862 0.000000 290 5
3.089610 3.271744 0.000000 291 5
2.822980 3.504395 0.000000 292 5
2.538894 3.715376 0.000000 293 5
4.496311 -0.182163 0.000000 294 6
4.496723 0.171699 0.000000 295 6
4.469329 0.524498 0.000000 296 6
4.414298 0.874055 0.000000 297 6
4.331971 1.218206 0.000000 298 6
4.222857 1.554825 0.000000 299 6
4.087630 1.881829 0.000000 300 6
4.485421 0.361939 0.000000 301 6
4.443113 0.713262 0.000000 302 6
4.373332 1.060175 0.000000 303 6
4.276507 1.400532 0.000000 304 6
4.153238 1.732229 0.000000 305 6
4.004287 2.053214 0.000000 306 6
3.830575 2.361503 0.000000 307 6
4.408929 0.900747 0.000000 308 6
4.324521 1.244394 0.000000 309 6
4.213372 1.580346 0.000000 310 6
4.076169 1.906526 0.000000 311 6
3.913761 2.220917 0.000000 312 6
3.727152 2.521575 0.000000 313 6
3.517495 2.806640 0.000000 314 6
4.267955 1.426381 0.000000 315 6
4.142681 1.757326 0.000000 316 6
3.991790 2.077404 0.000000 317 6
3.816216 2.384637 0.000000 318 6
3.617044 2.677123 0.000000 319 6
3.395506 2.953056 0.000000 320 6
3.152971 3.210728 0.000000 321 6
4.064560 1.931154 0.000000 322 6
3.900252 2.244556 0.000000 323 6
3.711827 2.544079 0.000000 324 6
3.500450 2.827871 0.000000 325 6
3.267427 3.094176 0.000000 326 6
3.014199 3.341347 0.000000 327 6
2.742333 3.567858 0.000000 328 6
3.801718 2.407683 0.000000 329 6
3.600780 2.698959 0.000000 330 6
3.377577 2.973546 0.000000 331 6
3.133487 3.229746 0.000000 332 6
2.870021 3.465974 0.000000 333 6
2.588809 3.680770 0.000000 334 6
2.291588 3.872806 0.000000 335 6
3.483276 2.848998 0.000000 336 6
3.248646 3.113888 0.000000 337 6
2.993928 3.359523 0.000000 338 6
2.720696 3.584385 0.000000 339 6
2.430641 3.787081 0.000000 340 6
2.125555 3.966360 0.000000 341 6
1.807327 4.121113 0.000000 342 6
