ply
format ascii 1.0
element vertex 1057
property float x
property float y
property float z
property int group_id
end_header
0.000000 0.000000 0.000000 0
0.010000 -0.000037 0.000000 0
0.019999 -0.000149 0.000000 0
0.029998 -0.000335 0.000000 0
0.039996 -0.000596 0.000000 0
0.049991 -0.000931 0.000000 0
0.059985 -0.001340 0.000000 0
0.069976 -0.001824 0.000000 0
0.079965 -0.002383 0.000000 0
0.089949 -0.003015 0.000000 0
0.099931 -0.003723 0.000000 0
0.109908 -0.004504 0.000000 0
0.119880 -0.005360 0.000000 0
0.129848 -0.006290 0.000000 0
0.139810 -0.007294 0.000000 0
0.149766 -0.008373 0.000000 0
0.159716 -0.009526 0.000000 0
0.169660 -0.010753 0.000000 0
0.179596 -0.012055 0.000000 0
0.189525 -0.013430 0.000000 0
0.199446 -0.014880 0.000000 0
0.209358 -0.016403 0.000000 0
0.219262 -0.018001 0.000000 0
0.229157 -0.019673 0.000000 0
0.239042 -0.021418 0.000000 0
0.248918 -0.023237 0.000000 0
0.258783 -0.025131 0.000000 0
0.268637 -0.027098 0.000000 0
0.278480 -0.029138 0.000000 0
0.288311 -0.031253 0.000000 0
0.298130 -0.033441 0.000000 0
0.307937 -0.035702 0.000000 0
0.317731 -0.038037 0.000000 0
0.327512 -0.040446 0.000000 0
0.337279 -0.042927 0.000000 0
0.347032 -0.045482 0.000000 0
0.356771 -0.048110 0.000000 0
0.366494 -0.050812 0.000000 0
0.376203 -0.053586 0.000000 0
0.385895 -0.056434 0.000000 0
0.395572 -0.059354 0.000000 0
0.405232 -0.062347 0.000000 0
0.414875 -0.065413 0.000000 0
0.424501 -0.068551 0.000000 0
0.434108 -0.071762 0.000000 0
0.443698 -0.075046 0.000000 0
0.453269 -0.078402 0.000000 0
0.462822 -0.081830 0.000000 0
0.472354 -0.085330 0.000000 0
0.481867 -0.088903 0.000000 0
0.491360 -0.092547 0.000000 0
0.500833 -0.096264 0.000000 0
0.510284 -0.100052 0.000000 0
0.519714 -0.103912 0.000000 0
0.529122 -0.107843 0.000000 0
0.538508 -0.111846 0.000000 0
0.547871 -0.115921 0.000000 0
0.557211 -0.120066 0.000000 0
0.566528 -0.124283 0.000000 0
0.575821 -0.128571 0.000000 0
0.585090 -0.132929 0.000000 0
0.594334 -0.137358 0.000000 0
0.603553 -0.141858 0.000000 0
0.612747 -0.146429 0.000000 0
0.621915 -0.151070 0.000000 0
0.631056 -0.155781 0.000000 0
0.640172 -0.160562 0.000000 0
0.649260 -0.165414 0.000000 0
0.658321 -0.170335 0.000000 0
0.667354 -0.175326 0.000000 0
0.676358 -0.180386 0.000000 0
0.685335 -0.185516 0.000000 0
0.694282 -0.190716 0.000000 0
0.703200 -0.195984 0.000000 0
0.712088 -0.201322 0.000000 0
0.720946 -0.206728 0.000000 0
0.729774 -0.212203 0.000000 0
0.738570 -0.217747 0.000000 0
0.747336 -0.223359 0.000000 0
0.756070 -0.229039 0.000000 0
0.764771 -0.234787 0.000000 0
0.773440 -0.240604 0.000000 0
0.782077 -0.246488 0.000000 0
0.790680 -0.252439 0.000000 0
0.799249 -0.258459 0.000000 0
0.807785 -0.264545 0.000000 0
0.816286 -0.270698 0.000000 0
0.824752 -0.276919 0.000000 0
0.833183 -0.283206 0.000000 0
0.841579 -0.289560 0.000000 0
0.849939 -0.295980 0.000000 0
0.858262 -0.302466 0.000000 0
0.866549 -0.309019 0.000000 0
0.874799 -0.315637 0.000000 0
0.883011 -0.322321 0.000000 0
0.891186 -0.329070 0.000000 0
0.899323 -0.335885 0.000000 0
0.907421 -0.342765 0.000000 0
0.915480 -0.349710 0.000000 0
0.923500 -0.356719 0.000000 0
0.931480 -0.363793 0.000000 0
0.939420 -0.370932 0.000000 0
0.947320 -0.378134 0.000000 0
0.955179 -0.385400 0.000000 0
0.962997 -0.392730 0.000000 0
0.970773 -0.400124 0.000000 0
0.978508 -0.407581 0.000000 0
0.986200 -0.415101 0.000000 0
0.993850 -0.422684 0.000000 0
1.001457 -0.430329 0.000000 0
1.009021 -0.438037 0.000000 0
1.016541 -0.445807 0.000000 0
1.024017 -0.453639 0.000000 0
1.031449 -0.461533 0.000000 0
1.038836 -0.469489 0.000000 0
1.046178 -0.477506 0.000000 0
1.053474 -0.485584 0.000000 0
1.060725 -0.493723 0.000000 0
1.067930 -0.501923 0.000000 0
1.075088 -0.510183 0.000000 0
1.082199 -0.518503 0.000000 0
1.089263 -0.526883 0.000000 0
1.096280 -0.535323 0.000000 0
1.103248 -0.543823 0.000000 0
1.110169 -0.552381 0.000000 0
1.117041 -0.560999 0.000000 0
1.123864 -0.569675 0.000000 0
1.130638 -0.578410 0.000000 0
1.137362 -0.587204 0.000000 0
1.144036 -0.596055 0.000000 0
1.150660 -0.604964 0.000000 0
1.157233 -0.613931 0.000000 0
1.163756 -0.622955 0.000000 0
1.170227 -0.632036 0.000000 0
1.176646 -0.641173 0.000000 0
1.183014 -0.650367 0.000000 0
1.189329 -0.659618 0.000000 0
1.195592 -0.668924 0.000000 0
1.201802 -0.678286 0.000000 0
1.207958 -0.687704 0.000000 0
1.214061 -0.697177 0.000000 0
1.220110 -0.706704 0.000000 0
1.226105 -0.716287 0.000000 0
1.232045 -0.725923 0.000000 0
1.237931 -0.735614 0.000000 0
1.243761 -0.745359 0.000000 0
1.249535 -0.755157 0.000000 0
1.255254 -0.765008 0.000000 0
1.260917 -0.774912 0.000000 0
1.266523 -0.784869 0.000000 0
1.272072 -0.794879 0.000000 0
0.000000 0.000000 0.000000 1
0.010000 -0.000025 0.000000 1
0.020000 -0.000099 0.000000 1
0.029999 -0.000223 0.000000 1
0.039998 -0.000397 0.000000 1
0.049996 -0.000621 0.000000 1
0.059993 -0.000894 0.000000 1
0.069989 -0.001216 0.000000 1
0.079984 -0.001589 0.000000 1
0.089978 -0.002010 0.000000 1
0.099969 -0.002482 0.000000 1
0.109959 -0.003003 0.000000 1
0.119947 -0.003574 0.000000 1
0.129932 -0.004194 0.000000 1
0.139915 -0.004864 0.000000 1
0.149896 -0.005584 0.000000 1
0.159874 -0.006353 0.000000 1
0.169849 -0.007172 0.000000 1
0.179820 -0.008040 0.000000 1
0.189789 -0.008958 0.000000 1
0.199754 -0.009925 0.000000 1
0.209715 -0.010942 0.000000 1
0.219672 -0.012008 0.000000 1
0.229625 -0.013124 0.000000 1
0.239574 -0.014289 0.000000 1
0.249519 -0.015504 0.000000 1
0.259459 -0.016768 0.000000 1
0.269394 -0.018082 0.000000 1
0.279324 -0.019445 0.000000 1
0.289249 -0.020858 0.000000 1
0.299169 -0.022320 0.000000 1
0.309083 -0.023831 0.000000 1
0.318991 -0.025391 0.000000 1
0.328893 -0.027001 0.000000 1
0.338790 -0.028661 0.000000 1
0.348680 -0.030369 0.000000 1
0.358564 -0.032127 0.000000 1
0.368441 -0.033934 0.000000 1
0.378311 -0.035791 0.000000 1
0.388174 -0.037696 0.000000 1
0.398030 -0.039651 0.000000 1
0.407879 -0.041655 0.000000 1
0.417720 -0.043708 0.000000 1
0.427553 -0.045810 0.000000 1
0.437378 -0.047961 0.000000 1
0.447196 -0.050161 0.000000 1
0.457005 -0.052410 0.000000 1
0.466805 -0.054709 0.000000 1
0.476597 -0.057056 0.000000 1
0.486380 -0.059452 0.000000 1
0.496154 -0.061897 0.000000 1
0.505919 -0.064391 0.000000 1
0.515674 -0.066934 0.000000 1
0.525420 -0.069525 0.000000 1
0.535156 -0.072166 0.000000 1
0.544882 -0.074855 0.000000 1
0.554598 -0.077593 0.000000 1
0.564304 -0.080379 0.000000 1
0.573999 -0.083215 0.000000 1
0.583684 -0.086098 0.000000 1
0.593358 -0.089031 0.000000 1
0.603021 -0.092012 0.000000 1
0.612672 -0.095041 0.000000 1
0.622312 -0.098119 0.000000 1
0.631941 -0.101246 0.000000 1
0.641558 -0.104420 0.000000 1
0.651163 -0.107644 0.000000 1
0.660756 -0.110915 0.000000 1
0.670336 -0.114235 0.000000 1
0.679904 -0.117603 0.000000 1
0.689460 -0.121019 0.000000 1
0.699002 -0.124483 0.000000 1
0.708532 -0.127996 0.000000 1
0.718048 -0.131556 0.000000 1
0.727551 -0.135165 0.000000 1
0.737040 -0.138821 0.000000 1
0.746516 -0.142526 0.000000 1
0.755978 -0.146278 0.000000 1
0.765426 -0.150078 0.000000 1
0.774859 -0.153926 0.000000 1
0.784278 -0.157822 0.000000 1
0.793683 -0.161765 0.000000 1
0.803072 -0.165756 0.000000 1
0.812447 -0.169795 0.000000 1
0.821806 -0.173881 0.000000 1
0.831150 -0.178015 0.000000 1
0.840479 -0.182196 0.000000 1
0.849792 -0.186424 0.000000 1
0.859089 -0.190700 0.000000 1
0.868370 -0.195023 0.000000 1
0.877634 -0.199394 0.000000 1
0.886883 -0.203811 0.000000 1
0.896114 -0.208276 0.000000 1
0.905329 -0.212788 0.000000 1
0.914527 -0.217346 0.000000 1
0.923708 -0.221952 0.000000 1
0.932872 -0.226605 0.000000 1
0.942018 -0.231304 0.000000 1
0.951147 -0.236051 0.000000 1
0.960257 -0.240844 0.000000 1
0.969350 -0.245683 0.000000 1
0.978425 -0.250570 0.000000 1
0.987481 -0.255503 0.000000 1
0.996519 -0.260482 0.000000 1
1.005538 -0.265508 0.000000 1
1.014538 -0.270580 0.000000 1
1.023519 -0.275698 0.000000 1
1.032481 -0.280863 0.000000 1
1.041423 -0.286074 0.000000 1
1.050346 -0.291331 0.000000 1
1.059249 -0.296634 0.000000 1
1.068132 -0.301983 0.000000 1
1.076995 -0.307377 0.000000 1
1.085838 -0.312818 0.000000 1
1.094661 -0.318305 0.000000 1
1.103463 -0.323837 0.000000 1
1.112244 -0.329415 0.000000 1
1.121004 -0.335038 0.000000 1
1.129743 -0.340707 0.000000 1
1.138460 -0.346421 0.000000 1
1.147157 -0.352181 0.000000 1
1.155831 -0.357986 0.000000 1
1.164484 -0.363836 0.000000 1
1.173115 -0.369732 0.000000 1
1.181724 -0.375672 0.000000 1
1.190310 -0.381657 0.000000 1
1.198874 -0.387688 0.000000 1
1.207415 -0.393763 0.000000 1
1.215933 -0.399883 0.000000 1
1.224429 -0.406048 0.000000 1
1.232901 -0.412257 0.000000 1
1.241350 -0.418511 0.000000 1
1.249775 -0.424809 0.000000 1
1.258177 -0.431152 0.000000 1
1.266554 -0.437539 0.000000 1
1.274908 -0.443970 0.000000 1
1.283238 -0.450445 0.000000 1
1.291543 -0.456965 0.000000 1
1.299824 -0.463528 0.000000 1
1.308080 -0.470136 0.000000 1
1.316311 -0.476787 0.000000 1
1.324517 -0.483482 0.000000 1
1.332698 -0.490220 0.000000 1
1.340854 -0.497002 0.000000 1
1.348984 -0.503828 0.000000 1
1.357088 -0.510697 0.000000 1
1.365167 -0.517609 0.000000 1
1.373220 -0.524565 0.000000 1
1.381246 -0.531563 0.000000 1
1.389246 -0.538605 0.000000 1
1.397220 -0.545690 0.000000 1
0.000000 0.000000 0.000000 2
0.010000 -0.000012 0.000000 2
0.020000 -0.000050 0.000000 2
0.030000 -0.000112 0.000000 2
0.040000 -0.000199 0.000000 2
0.049999 -0.000310 0.000000 2
0.059998 -0.000447 0.000000 2
0.069997 -0.000608 0.000000 2
0.079996 -0.000794 0.000000 2
0.089994 -0.001005 0.000000 2
0.099992 -0.001241 0.000000 2
0.109990 -0.001502 0.000000 2
0.119987 -0.001787 0.000000 2
0.129983 -0.002097 0.000000 2
0.139979 -0.002432 0.000000 2
0.149974 -0.002792 0.000000 2
0.159968 -0.003177 0.000000 2
0.169962 -0.003587 0.000000 2
0.179955 -0.004021 0.000000 2
0.189947 -0.004480 0.000000 2
0.199938 -0.004964 0.000000 2
0.209929 -0.005473 0.000000 2
0.219918 -0.006006 0.000000 2
0.229906 -0.006565 0.000000 2
0.239894 -0.007148 0.000000 2
0.249880 -0.007756 0.000000 2
0.259865 -0.008389 0.000000 2
0.269848 -0.009046 0.000000 2
0.279831 -0.009728 0.000000 2
0.289812 -0.010436 0.000000 2
0.299792 -0.011168 0.000000 2
0.309771 -0.011924 0.000000 2
0.319748 -0.012706 0.000000 2
0.329723 -0.013512 0.000000 2
0.339697 -0.014343 0.000000 2
0.349670 -0.015199 0.000000 2
0.359641 -0.016080 0.000000 2
0.369610 -0.016985 0.000000 2
0.379577 -0.017915 0.000000 2
0.389543 -0.018870 0.000000 2
0.399507 -0.019850 0.000000 2
0.409469 -0.020854 0.000000 2
0.419430 -0.021883 0.000000 2
0.429388 -0.022937 0.000000 2
0.439344 -0.024016 0.000000 2
0.449298 -0.025120 0.000000 2
0.459251 -0.026248 0.000000 2
0.469201 -0.027401 0.000000 2
0.479148 -0.028579 0.000000 2
0.489094 -0.029781 0.000000 2
0.499038 -0.031008 0.000000 2
0.508979 -0.032260 0.000000 2
0.518917 -0.033537 0.000000 2
0.528854 -0.034838 0.000000 2
0.538788 -0.036164 0.000000 2
0.548719 -0.037515 0.000000 2
0.558648 -0.038890 0.000000 2
0.568574 -0.040290 0.000000 2
0.578498 -0.041715 0.000000 2
0.588419 -0.043165 0.000000 2
0.598337 -0.044639 0.000000 2
0.608253 -0.046138 0.000000 2
0.618165 -0.047662 0.000000 2
0.628075 -0.049210 0.000000 2
0.637982 -0.050783 0.000000 2
0.647886 -0.052381 0.000000 2
0.657787 -0.054003 0.000000 2
0.667685 -0.055650 0.000000 2
0.677580 -0.057321 0.000000 2
0.687471 -0.059018 0.000000 2
0.697360 -0.060739 0.000000 2
0.707245 -0.062484 0.000000 2
0.717127 -0.064254 0.000000 2
0.727006 -0.066049 0.000000 2
0.736881 -0.067868 0.000000 2
0.746753 -0.069712 0.000000 2
0.756622 -0.071581 0.000000 2
0.766486 -0.073474 0.000000 2
0.776348 -0.075392 0.000000 2
0.786206 -0.077334 0.000000 2
0.796060 -0.079301 0.000000 2
0.805910 -0.081293 0.000000 2
0.815757 -0.083309 0.000000 2
0.825600 -0.085350 0.000000 2
0.835439 -0.087415 0.000000 2
0.845274 -0.089505 0.000000 2
0.855106 -0.091619 0.000000 2
0.864933 -0.093758 0.000000 2
0.874757 -0.095922 0.000000 2
0.884576 -0.098110 0.000000 2
0.894391 -0.100322 0.000000 2
0.904202 -0.102559 0.000000 2
0.914009 -0.104821 0.000000 2
0.923812 -0.107107 0.000000 2
0.933610 -0.109417 0.000000 2
0.943404 -0.111752 0.000000 2
0.953194 -0.114111 0.000000 2
0.962979 -0.116495 0.000000 2
0.972760 -0.118904 0.000000 2
0.982536 -0.121337 0.000000 2
0.992308 -0.123794 0.000000 2
1.002075 -0.126276 0.000000 2
1.011838 -0.128782 0.000000 2
1.021595 -0.131312 0.000000 2
1.031348 -0.133867 0.000000 2
1.041097 -0.136447 0.000000 2
1.050840 -0.139051 0.000000 2
1.060579 -0.141679 0.000000 2
1.070312 -0.144331 0.000000 2
1.080041 -0.147008 0.000000 2
1.089765 -0.149710 0.000000 2
1.099483 -0.152436 0.000000 2
1.109197 -0.155186 0.000000 2
1.118905 -0.157960 0.000000 2
1.128608 -0.160759 0.000000 2
1.138306 -0.163582 0.000000 2
1.147999 -0.166429 0.000000 2
1.157686 -0.169301 0.000000 2
1.167368 -0.172197 0.000000 2
1.177045 -0.175117 0.000000 2
1.186716 -0.178062 0.000000 2
1.196381 -0.181031 0.000000 2
1.206041 -0.184024 0.000000 2
1.215696 -0.187041 0.000000 2
1.225344 -0.190083 0.000000 2
1.234987 -0.193148 0.000000 2
1.244625 -0.196239 0.000000 2
1.254256 -0.199353 0.000000 2
1.263882 -0.202491 0.000000 2
1.273502 -0.205654 0.000000 2
1.283116 -0.208841 0.000000 2
1.292723 -0.212052 0.000000 2
1.302325 -0.215287 0.000000 2
1.311921 -0.218547 0.000000 2
1.321511 -0.221830 0.000000 2
1.331095 -0.225138 0.000000 2
1.340672 -0.228470 0.000000 2
1.350243 -0.231826 0.000000 2
1.359808 -0.235206 0.000000 2
1.369367 -0.238610 0.000000 2
1.378919 -0.242038 0.000000 2
1.388465 -0.245490 0.000000 2
1.398004 -0.248967 0.000000 2
1.407537 -0.252467 0.000000 2
1.417063 -0.255991 0.000000 2
1.426583 -0.259540 0.000000 2
1.436096 -0.263112 0.000000 2
1.445602 -0.266709 0.000000 2
1.455102 -0.270329 0.000000 2
1.464595 -0.273974 0.000000 2
1.474081 -0.277642 0.000000 2
0.000000 0.000000 0.000000 3
0.010000 0.000000 0.000000 3
0.020000 0.000000 0.000000 3
0.030000 0.000000 0.000000 3
0.040000 0.000000 0.000000 3
0.050000 0.000000 0.000000 3
0.060000 0.000000 0.000000 3
0.070000 0.000000 0.000000 3
0.080000 0.000000 0.000000 3
0.090000 0.000000 0.000000 3
0.100000 0.000000 0.000000 3
0.110000 0.000000 0.000000 3
0.120000 0.000000 0.000000 3
0.130000 0.000000 0.000000 3
0.140000 0.000000 0.000000 3
0.150000 0.000000 0.000000 3
0.160000 0.000000 0.000000 3
0.170000 0.000000 0.000000 3
0.180000 0.000000 0.000000 3
0.190000 0.000000 0.000000 3
0.200000 0.000000 0.000000 3
0.210000 0.000000 0.000000 3
0.220000 0.000000 0.000000 3
0.230000 0.000000 0.000000 3
0.240000 0.000000 0.000000 3
0.250000 0.000000 0.000000 3
0.260000 0.000000 0.000000 3
0.270000 0.000000 0.000000 3
0.280000 0.000000 0.000000 3
0.290000 0.000000 0.000000 3
0.300000 0.000000 0.000000 3
0.310000 0.000000 0.000000 3
0.320000 0.000000 0.000000 3
0.330000 0.000000 0.000000 3
0.340000 0.000000 0.000000 3
0.350000 0.000000 0.000000 3
0.360000 0.000000 0.000000 3
0.370000 0.000000 0.000000 3
0.380000 0.000000 0.000000 3
0.390000 0.000000 0.000000 3
0.400000 0.000000 0.000000 3
0.410000 0.000000 0.000000 3
0.420000 0.000000 0.000000 3
0.430000 0.000000 0.000000 3
0.440000 0.000000 0.000000 3
0.450000 0.000000 0.000000 3
0.460000 0.000000 0.000000 3
0.470000 0.000000 0.000000 3
0.480000 0.000000 0.000000 3
0.490000 0.000000 0.000000 3
0.500000 0.000000 0.000000 3
0.510000 0.000000 0.000000 3
0.520000 0.000000 0.000000 3
0.530000 0.000000 0.000000 3
0.540000 0.000000 0.000000 3
0.550000 0.000000 0.000000 3
0.560000 0.000000 0.000000 3
0.570000 0.000000 0.000000 3
0.580000 0.000000 0.000000 3
0.590000 0.000000 0.000000 3
0.600000 0.000000 0.000000 3
0.610000 0.000000 0.000000 3
0.620000 0.000000 0.000000 3
0.630000 0.000000 0.000000 3
0.640000 0.000000 0.000000 3
0.650000 0.000000 0.000000 3
0.660000 0.000000 0.000000 3
0.670000 0.000000 0.000000 3
0.680000 0.000000 0.000000 3
0.690000 0.000000 0.000000 3
0.700000 0.000000 0.000000 3
0.710000 0.000000 0.000000 3
0.720000 0.000000 0.000000 3
0.730000 0.000000 0.000000 3
0.740000 0.000000 0.000000 3
0.750000 0.000000 0.000000 3
0.760000 0.000000 0.000000 3
0.770000 0.000000 0.000000 3
0.780000 0.000000 0.000000 3
0.790000 0.000000 0.000000 3
0.800000 0.000000 0.000000 3
0.810000 0.000000 0.000000 3
0.820000 0.000000 0.000000 3
0.830000 0.000000 0.000000 3
0.840000 0.000000 0.000000 3
0.850000 0.000000 0.000000 3
0.860000 0.000000 0.000000 3
0.870000 0.000000 0.000000 3
0.880000 0.000000 0.000000 3
0.890000 0.000000 0.000000 3
0.900000 0.000000 0.000000 3
0.910000 0.000000 0.000000 3
0.920000 0.000000 0.000000 3
0.930000 0.000000 0.000000 3
0.940000 0.000000 0.000000 3
0.950000 0.000000 0.000000 3
0.960000 0.000000 0.000000 3
0.970000 0.000000 0.000000 3
0.980000 0.000000 0.000000 3
0.990000 0.000000 0.000000 3
1.000000 0.000000 0.000000 3
1.010000 0.000000 0.000000 3
1.020000 0.000000 0.000000 3
1.030000 0.000000 0.000000 3
1.040000 0.000000 0.000000 3
1.050000 0.000000 0.000000 3
1.060000 0.000000 0.000000 3
1.070000 0.000000 0.000000 3
1.080000 0.000000 0.000000 3
1.090000 0.000000 0.000000 3
1.100000 0.000000 0.000000 3
1.110000 0.000000 0.000000 3
1.120000 0.000000 0.000000 3
1.130000 0.000000 0.000000 3
1.140000 0.000000 0.000000 3
1.150000 0.000000 0.000000 3
1.160000 0.000000 0.000000 3
1.170000 0.000000 0.000000 3
1.180000 0.000000 0.000000 3
1.190000 0.000000 0.000000 3
1.200000 0.000000 0.000000 3
1.210000 0.000000 0.000000 3
1.220000 0.000000 0.000000 3
1.230000 0.000000 0.000000 3
1.240000 0.000000 0.000000 3
1.250000 0.000000 0.000000 3
1.260000 0.000000 0.000000 3
1.270000 0.000000 0.000000 3
1.280000 0.000000 0.000000 3
1.290000 0.000000 0.000000 3
1.300000 0.000000 0.000000 3
1.310000 0.000000 0.000000 3
1.320000 0.000000 0.000000 3
1.330000 0.000000 0.000000 3
1.340000 0.000000 0.000000 3
1.350000 0.000000 0.000000 3
1.360000 0.000000 0.000000 3
1.370000 0.000000 0.000000 3
1.380000 0.000000 0.000000 3
1.390000 0.000000 0.000000 3
1.400000 0.000000 0.000000 3
1.410000 0.000000 0.000000 3
1.420000 0.000000 0.000000 3
1.430000 0.000000 0.000000 3
1.440000 0.000000 0.000000 3
1.450000 0.000000 0.000000 3
1.460000 0.000000 0.000000 3
1.470000 0.000000 0.000000 3
1.480000 0.000000 0.000000 3
1.490000 0.000000 0.000000 3
1.500000 0.000000 0.000000 3
0.000000 0.000000 0.000000 4
0.010000 0.000012 0.000000 4
0.020000 0.000050 0.000000 4
0.030000 0.000112 0.000000 4
0.040000 0.000199 0.000000 4
0.049999 0.000310 0.000000 4
0.059998 0.000447 0.000000 4
0.069997 0.000608 0.000000 4
0.079996 0.000794 0.000000 4
0.089994 0.001005 0.000000 4
0.099992 0.001241 0.000000 4
0.109990 0.001502 0.000000 4
0.119987 0.001787 0.000000 4
0.129983 0.002097 0.000000 4
0.139979 0.002432 0.000000 4
0.149974 0.002792 0.000000 4
0.159968 0.003177 0.000000 4
0.169962 0.003587 0.000000 4
0.179955 0.004021 0.000000 4
0.189947 0.004480 0.000000 4
0.199938 0.004964 0.000000 4
0.209929 0.005473 0.000000 4
0.219918 0.006006 0.000000 4
0.229906 0.006565 0.000000 4
0.239894 0.007148 0.000000 4
0.249880 0.007756 0.000000 4
0.259865 0.008389 0.000000 4
0.269848 0.009046 0.000000 4
0.279831 0.009728 0.000000 4
0.289812 0.010436 0.000000 4
0.299792 0.011168 0.000000 4
0.309771 0.011924 0.000000 4
0.319748 0.012706 0.000000 4
0.329723 0.013512 0.000000 4
0.339697 0.014343 0.000000 4
0.349670 0.015199 0.000000 4
0.359641 0.016080 0.000000 4
0.369610 0.016985 0.000000 4
0.379577 0.017915 0.000000 4
0.389543 0.018870 0.000000 4
0.399507 0.019850 0.000000 4
0.409469 0.020854 0.000000 4
0.419430 0.021883 0.000000 4
0.429388 0.022937 0.000000 4
0.439344 0.024016 0.000000 4
0.449298 0.025120 0.000000 4
0.459251 0.026248 0.000000 4
0.469201 0.027401 0.000000 4
0.479148 0.028579 0.000000 4
0.489094 0.029781 0.000000 4
0.499038 0.031008 0.000000 4
0.508979 0.032260 0.000000 4
0.518917 0.033537 0.000000 4
0.528854 0.034838 0.000000 4
0.538788 0.036164 0.000000 4
0.548719 0.037515 0.000000 4
0.558648 0.038890 0.000000 4
0.568574 0.040290 0.000000 4
0.578498 0.041715 0.000000 4
0.588419 0.043165 0.000000 4
0.598337 0.044639 0.000000 4
0.608253 0.046138 0.000000 4
0.618165 0.047662 0.000000 4
0.628075 0.049210 0.000000 4
0.637982 0.050783 0.000000 4
0.647886 0.052381 0.000000 4
0.657787 0.054003 0.000000 4
0.667685 0.055650 0.000000 4
0.677580 0.057321 0.000000 4
0.687471 0.059018 0.000000 4
0.697360 0.060739 0.000000 4
0.707245 0.062484 0.000000 4
0.717127 0.064254 0.000000 4
0.727006 0.066049 0.000000 4
0.736881 0.067868 0.000000 4
0.746753 0.069712 0.000000 4
0.756622 0.071581 0.000000 4
0.766486 0.073474 0.000000 4
0.776348 0.075392 0.000000 4
0.786206 0.077334 0.000000 4
0.796060 0.079301 0.000000 4
0.805910 0.081293 0.000000 4
0.815757 0.083309 0.000000 4
0.825600 0.085350 0.000000 4
0.835439 0.087415 0.000000 4
0.845274 0.089505 0.000000 4
0.855106 0.091619 0.000000 4
0.864933 0.093758 0.000000 4
0.874757 0.095922 0.000000 4
0.884576 0.098110 0.000000 4
0.894391 0.100322 0.000000 4
0.904202 0.102559 0.000000 4
0.914009 0.104821 0.000000 4
0.923812 0.107107 0.000000 4
0.933610 0.109417 0.000000 4
0.943404 0.111752 0.000000 4
0.953194 0.114111 0.000000 4
0.962979 0.116495 0.000000 4
0.972760 0.118904 0.000000 4
0.982536 0.121337 0.000000 4
0.992308 0.123794 0.000000 4
1.002075 0.126276 0.000000 4
1.011838 0.128782 0.000000 4
1.021595 0.131312 0.000000 4
1.031348 0.133867 0.000000 4
1.041097 0.136447 0.000000 4
1.050840 0.139051 0.000000 4
1.060579 0.141679 0.000000 4
1.070312 0.144331 0.000000 4
1.080041 0.147008 0.000000 4
1.089765 0.149710 0.000000 4
1.099483 0.152436 0.000000 4
1.109197 0.155186 0.000000 4
1.118905 0.157960 0.000000 4
1.128608 0.160759 0.000000 4
1.138306 0.163582 0.000000 4
1.147999 0.166429 0.000000 4
1.157686 0.169301 0.000000 4
1.167368 0.172197 0.000000 4
1.177045 0.175117 0.000000 4
1.186716 0.178062 0.000000 4
1.196381 0.181031 0.000000 4
1.206041 0.184024 0.000000 4
1.215696 0.187041 0.000000 4
1.225344 0.190083 0.000000 4
1.234987 0.193148 0.000000 4
1.244625 0.196239 0.000000 4
1.254256 0.199353 0.000000 4
1.263882 0.202491 0.000000 4
1.273502 0.205654 0.000000 4
1.283116 0.208841 0.000000 4
1.292723 0.212052 0.000000 4
1.302325 0.215287 0.000000 4
1.311921 0.218547 0.000000 4
1.321511 0.221830 0.000000 4
1.331095 0.225138 0.000000 4
1.340672 0.228470 0.000000 4
1.350243 0.231826 0.000000 4
1.359808 0.235206 0.000000 4
1.369367 0.238610 0.000000 4
1.378919 0.242038 0.000000 4
1.388465 0.245490 0.000000 4
1.398004 0.248967 0.000000 4
1.407537 0.252467 0.000000 4
1.417063 0.255991 0.000000 4
1.426583 0.259540 0.000000 4
1.436096 0.263112 0.000000 4
1.445602 0.266709 0.000000 4
1.455102 0.270329 0.000000 4
1.464595 0.273974 0.000000 4
1.474081 0.277642 0.000000 4
0.000000 0.000000 0.000000 5
0.010000 0.000025 0.000000 5
0.020000 0.000099 0.000000 5
0.029999 0.000223 0.000000 5
0.039998 0.000397 0.000000 5
0.049996 0.000621 0.000000 5
0.059993 0.000894 0.000000 5
0.069989 0.001216 0.000000 5
0.079984 0.001589 0.000000 5
0.089978 0.002010 0.000000 5
0.099969 0.002482 0.000000 5
0.109959 0.003003 0.000000 5
0.119947 0.003574 0.000000 5
0.129932 0.004194 0.000000 5
0.139915 0.004864 0.000000 5
0.149896 0.005584 0.000000 5
0.159874 0.006353 0.000000 5
0.169849 0.007172 0.000000 5
0.179820 0.008040 0.000000 5
0.189789 0.008958 0.000000 5
0.199754 0.009925 0.000000 5
0.209715 0.010942 0.000000 5
0.219672 0.012008 0.000000 5
0.229625 0.013124 0.000000 5
0.239574 0.014289 0.000000 5
0.249519 0.015504 0.000000 5
0.259459 0.016768 0.000000 5
0.269394 0.018082 0.000000 5
0.279324 0.019445 0.000000 5
0.289249 0.020858 0.000000 5
0.299169 0.022320 0.000000 5
0.309083 0.023831 0.000000 5
0.318991 0.025391 0.000000 5
0.328893 0.027001 0.000000 5
0.338790 0.028661 0.000000 5
0.348680 0.030369 0.000000 5
0.358564 0.032127 0.000000 5
0.368441 0.033934 0.000000 5
0.378311 0.035791 0.000000 5
0.388174 0.037696 0.000000 5
0.398030 0.039651 0.000000 5
0.407879 0.041655 0.000000 5
0.417720 0.043708 0.000000 5
0.427553 0.045810 0.000000 5
0.437378 0.047961 0.000000 5
0.447196 0.050161 0.000000 5
0.457005 0.052410 0.000000 5
0.466805 0.054709 0.000000 5
0.476597 0.057056 0.000000 5
0.486380 0.059452 0.000000 5
0.496154 0.061897 0.000000 5
0.505919 0.064391 0.000000 5
0.515674 0.066934 0.000000 5
0.525420 0.069525 0.000000 5
0.535156 0.072166 0.000000 5
0.544882 0.074855 0.000000 5
0.554598 0.077593 0.000000 5
0.564304 0.080379 0.000000 5
0.573999 0.083215 0.000000 5
0.583684 0.086098 0.000000 5
0.593358 0.089031 0.000000 5
0.603021 0.092012 0.000000 5
0.612672 0.095041 0.000000 5
0.622312 0.098119 0.000000 5
0.631941 0.101246 0.000000 5
0.641558 0.104420 0.000000 5
0.651163 0.107644 0.000000 5
0.660756 0.110915 0.000000 5
0.670336 0.114235 0.000000 5
0.679904 0.117603 0.000000 5
0.689460 0.121019 0.000000 5
0.699002 0.124483 0.000000 5
0.708532 0.127996 0.000000 5
0.718048 0.131556 0.000000 5
0.727551 0.135165 0.000000 5
0.737040 0.138821 0.000000 5
0.746516 0.142526 0.000000 5
0.755978 0.146278 0.000000 5
0.765426 0.150078 0.000000 5
0.774859 0.153926 0.000000 5
0.784278 0.157822 0.000000 5
0.793683 0.161765 0.000000 5
0.803072 0.165756 0.000000 5
0.812447 0.169795 0.000000 5
0.821806 0.173881 0.000000 5
0.831150 0.178015 0.000000 5
0.840479 0.182196 0.000000 5
0.849792 0.186424 0.000000 5
0.859089 0.190700 0.000000 5
0.868370 0.195023 0.000000 5
0.877634 0.199394 0.000000 5
0.886883 0.203811 0.000000 5
0.896114 0.208276 0.000000 5
0.905329 0.212788 0.000000 5
0.914527 0.217346 0.000000 5
0.923708 0.221952 0.000000 5
0.932872 0.226605 0.000000 5
0.942018 0.231304 0.000000 5
0.951147 0.236051 0.000000 5
0.960257 0.240844 0.000000 5
0.969350 0.245683 0.000000 5
0.978425 0.250570 0.000000 5
0.987481 0.255503 0.000000 5
0.996519 0.260482 0.000000 5
1.005538 0.265508 0.000000 5
1.014538 0.270580 0.000000 5
1.023519 0.275698 0.000000 5
1.032481 0.280863 0.000000 5
1.041423 0.286074 0.000000 5
1.050346 0.291331 0.000000 5
1.059249 0.296634 0.000000 5
1.068132 0.301983 0.000000 5
1.076995 0.307377 0.000000 5
1.085838 0.312818 0.000000 5
1.094661 0.318305 0.000000 5
1.103463 0.323837 0.000000 5
1.112244 0.329415 0.000000 5
1.121004 0.335038 0.000000 5
1.129743 0.340707 0.000000 5
1.138460 0.346421 0.000000 5
1.147157 0.352181 0.000000 5
1.155831 0.357986 0.000000 5
1.164484 0.363836 0.000000 5
1.173115 0.369732 0.000000 5
1.181724 0.375672 0.000000 5
1.190310 0.381657 0.000000 5
1.198874 0.387688 0.000000 5
1.207415 0.393763 0.000000 5
1.215933 0.399883 0.000000 5
1.224429 0.406048 0.000000 5
1.232901 0.412257 0.000000 5
1.241350 0.418511 0.000000 5
1.249775 0.424809 0.000000 5
1.258177 0.431152 0.000000 5
1.266554 0.437539 0.000000 5
1.274908 0.443970 0.000000 5
1.283238 0.450445 0.000000 5
1.291543 0.456965 0.000000 5
1.299824 0.463528 0.000000 5
1.308080 0.470136 0.000000 5
1.316311 0.476787 0.000000 5
1.324517 0.483482 0.000000 5
1.332698 0.490220 0.000000 5
1.340854 0.497002 0.000000 5
1.348984 0.503828 0.000000 5
1.357088 0.510697 0.000000 5
1.365167 0.517609 0.000000 5
1.373220 0.524565 0.000000 5
1.381246 0.531563 0.000000 5
1.389246 0.538605 0.000000 5
1.397220 0.545690 0.000000 5
0.000000 0.000000 0.000000 6
0.010000 0.000037 0.000000 6
0.019999 0.000149 0.000000 6
0.029998 0.000335 0.000000 6
0.039996 0.000596 0.000000 6
0.049991 0.000931 0.000000 6
0.059985 0.001340 0.000000 6
0.069976 0.001824 0.000000 6
0.079965 0.002383 0.000000 6
0.089949 0.003015 0.000000 6
0.099931 0.003723 0.000000 6
0.109908 0.004504 0.000000 6
0.119880 0.005360 0.000000 6
0.129848 0.006290 0.000000 6
0.139810 0.007294 0.000000 6
0.149766 0.008373 0.000000 6
0.159716 0.009526 0.000000 6
0.169660 0.010753 0.000000 6
0.179596 0.012055 0.000000 6
0.189525 0.013430 0.000000 6
0.199446 0.014880 0.000000 6
0.209358 0.016403 0.000000 6
0.219262 0.018001 0.000000 6
0.229157 0.019673 0.000000 6
0.239042 0.021418 0.000000 6
0.248918 0.023237 0.000000 6
0.258783 0.025131 0.000000 6
0.268637 0.027098 0.000000 6
0.278480 0.029138 0.000000 6
0.288311 0.031253 0.000000 6
0.298130 0.033441 0.000000 6
0.307937 0.035702 0.000000 6
0.317731 0.038037 0.000000 6
0.327512 0.040446 0.000000 6
0.337279 0.042927 0.000000 6
0.347032 0.045482 0.000000 6
0.356771 0.048110 0.000000 6
0.366494 0.050812 0.000000 6
0.376203 0.053586 0.000000 6
0.385895 0.056434 0.000000 6
0.395572 0.059354 0.000000 6
0.405232 0.062347 0.000000 6
0.414875 0.065413 0.000000 6
0.424501 0.068551 0.000000 6
0.434108 0.071762 0.000000 6
0.443698 0.075046 0.000000 6
0.453269 0.078402 0.000000 6
0.462822 0.081830 0.000000 6
0.472354 0.085330 0.000000 6
0.481867 0.088903 0.000000 6
0.491360 0.092547 0.000000 6
0.500833 0.096264 0.000000 6
0.510284 0.100052 0.000000 6
0.519714 0.103912 0.000000 6
0.529122 0.107843 0.000000 6
0.538508 0.111846 0.000000 6
0.547871 0.115921 0.000000 6
0.557211 0.120066 0.000000 6
0.566528 0.124283 0.000000 6
0.575821 0.128571 0.000000 6
0.585090 0.132929 0.000000 6
0.594334 0.137358 0.000000 6
0.603553 0.141858 0.000000 6
0.612747 0.146429 0.000000 6
0.621915 0.151070 0.000000 6
0.631056 0.155781 0.000000 6
0.640172 0.160562 0.000000 6
0.649260 0.165414 0.000000 6
0.658321 0.170335 0.000000 6
0.667354 0.175326 0.000000 6
0.676358 0.180386 0.000000 6
0.685335 0.185516 0.000000 6
0.694282 0.190716 0.000000 6
0.703200 0.195984 0.000000 6
0.712088 0.201322 0.000000 6
0.720946 0.206728 0.000000 6
0.729774 0.212203 0.000000 6
0.738570 0.217747 0.000000 6
0.747336 0.223359 0.000000 6
0.756070 0.229039 0.000000 6
0.764771 0.234787 0.000000 6
0.773440 0.240604 0.000000 6
0.782077 0.246488 0.000000 6
0.790680 0.252439 0.000000 6
0.799249 0.258459 0.000000 6
0.807785 0.264545 0.000000 6
0.816286 0.270698 0.000000 6
0.824752 0.276919 0.000000 6
0.833183 0.283206 0.000000 6
0.841579 0.289560 0.000000 6
0.849939 0.295980 0.000000 6
0.858262 0.302466 0.000000 6
0.866549 0.309019 0.000000 6
0.874799 0.315637 0.000000 6
0.883011 0.322321 0.000000 6
0.891186 0.329070 0.000000 6
0.899323 0.335885 0.000000 6
0.907421 0.342765 0.000000 6
0.915480 0.349710 0.000000 6
0.923500 0.356719 0.000000 6
0.931480 0.363793 0.000000 6
0.939420 0.370932 0.000000 6
0.947320 0.378134 0.000000 6
0.955179 0.385400 0.000000 6
0.962997 0.392730 0.000000 6
0.970773 0.400124 0.000000 6
0.978508 0.407581 0.000000 6
0.986200 0.415101 0.000000 6
0.993850 0.422684 0.000000 6
1.001457 0.430329 0.000000 6
1.009021 0.438037 0.000000 6
1.016541 0.445807 0.000000 6
1.024017 0.453639 0.000000 6
1.031449 0.461533 0.000000 6
1.038836 0.469489 0.000000 6
1.046178 0.477506 0.000000 6
1.053474 0.485584 0.000000 6
1.060725 0.493723 0.000000 6
1.067930 0.501923 0.000000 6
1.075088 0.510183 0.000000 6
1.082199 0.518503 0.000000 6
1.089263 0.526883 0.000000 6
1.096280 0.535323 0.000000 6
1.103248 0.543823 0.000000 6
1.110169 0.552381 0.000000 6
1.117041 0.560999 0.000000 6
1.123864 0.569675 0.000000 6
1.130638 0.578410 0.000000 6
1.137362 0.587204 0.000000 6
1.144036 0.596055 0.000000 6
1.150660 0.604964 0.000000 6
1.157233 0.613931 0.000000 6
1.163756 0.622955 0.000000 6
1.170227 0.632036 0.000000 6
1.176646 0.641173 0.000000 6
1.183014 0.650367 0.000000 6
1.189329 0.659618 0.000000 6
1.195592 0.668924 0.000000 6
1.201802 0.678286 0.000000 6
1.207958 0.687704 0.000000 6
1.214061 0.697177 0.000000 6
1.220110 0.706704 0.000000 6
1.226105 0.716287 0.000000 6
1.232045 0.725923 0.000000 6
1.237931 0.735614 0.000000 6
1.243761 0.745359 0.000000 6
1.249535 0.755157 0.000000 6
1.255254 0.765008 0.000000 6
1.260917 0.774912 0.000000 6
1.266523 0.784869 0.000000 6
1.272072 0.794879 0.000000 6
