ply
format ascii 1.0
element vertex 343
property float end_x
property float end_y
property float end_z
property int path_id
property int group_id
end_header
2.842427 -0.959483 0.000000 0 0
2.862956 -0.896373 0.000000 1 0
2.882083 -0.832824 0.000000 2 0
2.899800 -0.768868 0.000000 3 0
2.916098 -0.704536 0.000000 4 0
2.930969 -0.639859 0.000000 5 0
2.944406 -0.574868 0.000000 6 0
2.873430 -0.862207 0.000000 7 0
2.891799 -0.798435 0.000000 8 0
2.908753 -0.734272 0.000000 9 0
2.924284 -0.669750 0.000000 10 0
2.938383 -0.604901 0.000000 11 0
2.951045 -0.539755 0.000000 12 0
2.962262 -0.474345 0.000000 13 0
2.901104 -0.763932 0.000000 14 0
2.917293 -0.699572 0.000000 15 0
2.932054 -0.634870 0.000000 16 0
2.945380 -0.569857 0.000000 17 0
2.957265 -0.504565 0.000000 18 0
2.967702 -0.439026 0.000000 19 0
2.976687 -0.373272 0.000000 20 0
2.925419 -0.664773 0.000000 21 0
2.939408 -0.599899 0.000000 22 0
2.951959 -0.534732 0.000000 23 0
2.963065 -0.469303 0.000000 24 0
2.972721 -0.403645 0.000000 25 0
2.980922 -0.337789 0.000000 26 0
2.987665 -0.271767 0.000000 27 0
2.946345 -0.564844 0.000000 28 0
2.958119 -0.499532 0.000000 29 0
2.968445 -0.433975 0.000000 30 0
2.977318 -0.368206 0.000000 31 0
2.984735 -0.302257 0.000000 32 0
2.990690 -0.236160 0.000000 33 0
2.995182 -0.169948 0.000000 34 0
2.963859 -0.464260 0.000000 35 0
2.973404 -0.398586 0.000000 36 0
2.981493 -0.332716 0.000000 37 0
2.988123 -0.266683 0.000000 38 0
2.993291 -0.200520 0.000000 39 0
2.996994 -0.134258 0.000000 40 0
2.999231 -0.067931 0.000000 41 0
2.977941 -0.363139 0.000000 42 0
2.985245 -0.297178 0.000000 43 0
2.991088 -0.231071 0.000000 44 0
2.995467 -0.164851 0.000000 45 0
2.998381 -0.098550 0.000000 46 0
2.999827 -0.032201 0.000000 47 0
2.999805 0.034164 0.000000 48 0
2.888747 -0.809407 0.000000 49 1
2.905945 -0.745309 0.000000 50 1
2.921720 -0.680846 0.000000 51 1
2.936066 -0.616051 0.000000 52 1
2.948974 -0.550953 0.000000 53 1
2.960440 -0.485587 0.000000 54 1
2.970457 -0.419982 0.000000 55 1
2.914616 -0.710642 0.000000 56 1
2.929623 -0.645996 0.000000 57 1
2.943196 -0.581034 0.000000 58 1
2.955328 -0.515787 0.000000 59 1
2.966014 -0.450289 0.000000 60 1
2.975249 -0.384569 0.000000 61 1
2.983028 -0.318662 0.000000 62 1
2.937110 -0.611053 0.000000 63 1
2.949908 -0.545934 0.000000 64 1
2.961262 -0.480548 0.000000 65 1
2.971167 -0.414927 0.000000 66 1
2.979619 -0.349102 0.000000 67 1
2.986612 -0.283107 0.000000 68 1
2.992143 -0.216973 0.000000 69 1
2.956201 -0.510757 0.000000 70 1
2.966776 -0.445241 0.000000 71 1
2.975899 -0.379506 0.000000 72 1
2.983566 -0.313585 0.000000 73 1
2.989772 -0.247511 0.000000 74 1
2.994516 -0.181316 0.000000 75 1
2.997794 -0.115033 0.000000 76 1
2.971869 -0.409870 0.000000 77 1
2.980208 -0.344031 0.000000 78 1
2.987089 -0.278024 0.000000 79 1
2.992508 -0.211881 0.000000 80 1
2.996463 -0.145634 0.000000 81 1
2.998951 -0.079316 0.000000 82 1
2.999972 -0.012959 0.000000 83 1
2.984095 -0.308508 0.000000 84 1
2.990189 -0.242423 0.000000 85 1
2.994820 -0.176220 0.000000 86 1
2.997985 -0.109931 0.000000 87 1
2.999683 -0.043588 0.000000 88 1
2.999914 0.022776 0.000000 89 1
2.998676 0.089130 0.000000 90 1
2.992865 -0.206788 0.000000 91 1
2.996707 -0.140535 0.000000 92 1
2.999082 -0.074213 0.000000 93 1
2.999990 -0.007854 0.000000 94 1
2.999429 0.058508 0.000000 95 1
2.997401 0.124842 0.000000 96 1
2.993906 0.191115 0.000000 97 1
2.927149 -0.657112 0.000000 98 2
2.940969 -0.592202 0.000000 99 2
2.953349 -0.527002 0.000000 100 2
2.964283 -0.461545 0.000000 101 2
2.973768 -0.395861 0.000000 102 2
2.981797 -0.329984 0.000000 103 2
2.988366 -0.263945 0.000000 104 2
2.947814 -0.557128 0.000000 105 2
2.959417 -0.491786 0.000000 106 2
2.969571 -0.426202 0.000000 107 2
2.978272 -0.360411 0.000000 108 2
2.985516 -0.294442 0.000000 109 2
2.991298 -0.228330 0.000000 110 2
2.995617 -0.162106 0.000000 111 2
2.965065 -0.456500 0.000000 112 2
2.974437 -0.390800 0.000000 113 2
2.982354 -0.324909 0.000000 114 2
2.988811 -0.258859 0.000000 115 2
2.993806 -0.192683 0.000000 116 2
2.997335 -0.126412 0.000000 117 2
2.999398 -0.060079 0.000000 118 2
2.978881 -0.355342 0.000000 119 2
2.986012 -0.289361 0.000000 120 2
2.991683 -0.223239 0.000000 121 2
2.995889 -0.157008 0.000000 122 2
2.998629 -0.090700 0.000000 123 2
2.999901 -0.024347 0.000000 124 2
2.999706 0.042017 0.000000 125 2
2.989247 -0.253773 0.000000 126 2
2.994129 -0.187588 0.000000 127 2
2.997546 -0.121311 0.000000 128 2
2.999496 -0.054975 0.000000 129 2
2.999978 0.011388 0.000000 130 2
2.998992 0.077746 0.000000 131 2
2.996539 0.144065 0.000000 132 2
2.996151 -0.151910 0.000000 133 2
2.998779 -0.085597 0.000000 134 2
2.999938 -0.019242 0.000000 135 2
2.999630 0.047122 0.000000 136 2
2.997854 0.113463 0.000000 137 2
2.994610 0.179748 0.000000 138 2
2.989901 0.245946 0.000000 139 2
2.999585 -0.049870 0.000000 140 2
2.999955 0.016493 0.000000 141 2
2.998856 0.082849 0.000000 142 2
2.996289 0.149164 0.000000 143 2
2.992257 0.215406 0.000000 144 2
2.986760 0.281543 0.000000 145 2
2.979801 0.347542 0.000000 146 2
2.957528 -0.503016 0.000000 147 3
2.967932 -0.437472 0.000000 148 3
2.976882 -0.371714 0.000000 149 3
2.984376 -0.305773 0.000000 150 3
2.990410 -0.239683 0.000000 151 3
2.994980 -0.173476 0.000000 152 3
2.998085 -0.107184 0.000000 153 3
2.972932 -0.402088 0.000000 154 3
2.981099 -0.336228 0.000000 155 3
2.987807 -0.270203 0.000000 156 3
2.993053 -0.204046 0.000000 157 3
2.996834 -0.137789 0.000000 158 3
2.999149 -0.071464 0.000000 159 3
2.999996 -0.005105 0.000000 160 3
2.984892 -0.300694 0.000000 161 3
2.990814 -0.234594 0.000000 162 3
2.995271 -0.168379 0.000000 163 3
2.998263 -0.102082 0.000000 164 3
2.999787 -0.035735 0.000000 165 3
2.999844 0.030630 0.000000 166 3
2.998432 0.096980 0.000000 167 3
2.993396 -0.198952 0.000000 168 3
2.997064 -0.132689 0.000000 169 3
2.999266 -0.066361 0.000000 170 3
3.000000 0.000000 0.000000 171 3
2.999266 0.066361 0.000000 172 3
2.997064 0.132689 0.000000 173 3
2.993396 0.198952 0.000000 174 3
2.998432 -0.096980 0.000000 175 3
2.999844 -0.030630 0.000000 176 3
2.999787 0.035735 0.000000 177 3
2.998263 0.102082 0.000000 178 3
2.995271 0.168379 0.000000 179 3
2.990814 0.234594 0.000000 180 3
2.984892 0.300694 0.000000 181 3
2.999996 0.005105 0.000000 182 3
2.999149 0.071464 0.000000 183 3
2.996834 0.137789 0.000000 184 3
2.993053 0.204046 0.000000 185 3
2.987807 0.270203 0.000000 186 3
2.981099 0.336228 0.000000 187 3
2.972932 0.402088 0.000000 188 3
2.998085 0.107184 0.000000 189 3
2.994980 0.173476 0.000000 190 3
2.990410 0.239683 0.000000 191 3
2.984376 0.305773 0.000000 192 3
2.976882 0.371714 0.000000 193 3
2.967932 0.437472 0.000000 194 3
2.957528 0.503016 0.000000 195 3
2.979801 -0.347542 0.000000 196 4
2.986760 -0.281543 0.000000 197 4
2.992257 -0.215406 0.000000 198 4
2.996289 -0.149164 0.000000 199 4
2.998856 -0.082849 0.000000 200 4
2.999955 -0.016493 0.000000 201 4
2.999585 0.049870 0.000000 202 4
2.989901 -0.245946 0.000000 203 4
2.994610 -0.179748 0.000000 204 4
2.997854 -0.113463 0.000000 205 4
2.999630 -0.047122 0.000000 206 4
2.999938 0.019242 0.000000 207 4
2.998779 0.085597 0.000000 208 4
2.996151 0.151910 0.000000 209 4
2.996539 -0.144065 0.000000 210 4
2.998992 -0.077746 0.000000 211 4
2.999978 -0.011388 0.000000 212 4
2.999496 0.054975 0.000000 213 4
2.997546 0.121311 0.000000 214 4
2.994129 0.187588 0.000000 215 4
2.989247 0.253773 0.000000 216 4
2.999706 -0.042017 0.000000 217 4
2.999901 0.024347 0.000000 218 4
2.998629 0.090700 0.000000 219 4
2.995889 0.157008 0.000000 220 4
2.991683 0.223239 0.000000 221 4
2.986012 0.289361 0.000000 222 4
2.978881 0.355342 0.000000 223 4
2.999398 0.060079 0.000000 224 4
2.997335 0.126412 0.000000 225 4
2.993806 0.192683 0.000000 226 4
2.988811 0.258859 0.000000 227 4
2.982354 0.324909 0.000000 228 4
2.974437 0.390800 0.000000 229 4
2.965065 0.456500 0.000000 230 4
2.995617 0.162106 0.000000 231 4
2.991298 0.228330 0.000000 232 4
2.985516 0.294442 0.000000 233 4
2.978272 0.360411 0.000000 234 4
2.969571 0.426202 0.000000 235 4
2.959417 0.491786 0.000000 236 4
2.947814 0.557128 0.000000 237 4
2.988366 0.263945 0.000000 238 4
2.981797 0.329984 0.000000 239 4
2.973768 0.395861 0.000000 240 4
2.964283 0.461545 0.000000 241 4
2.953349 0.527002 0.000000 242 4
2.940969 0.592202 0.000000 243 4
2.927149 0.657112 0.000000 244 4
2.993906 -0.191115 0.000000 245 5
2.997401 -0.124842 0.000000 246 5
2.999429 -0.058508 0.000000 247 5
2.999990 0.007854 0.000000 248 5
2.999082 0.074213 0.000000 249 5
2.996707 0.140535 0.000000 250 5
2.992865 0.206788 0.000000 251 5
2.998676 -0.089130 0.000000 252 5
2.999914 -0.022776 0.000000 253 5
2.999683 0.043588 0.000000 254 5
2.997985 0.109931 0.000000 255 5
2.994820 0.176220 0.000000 256 5
2.990189 0.242423 0.000000 257 5
2.984095 0.308508 0.000000 258 5
2.999972 0.012959 0.000000 259 5
2.998951 0.079316 0.000000 260 5
2.996463 0.145634 0.000000 261 5
2.992508 0.211881 0.000000 262 5
2.987089 0.278024 0.000000 263 5
2.980208 0.344031 0.000000 264 5
2.971869 0.409870 0.000000 265 5
2.997794 0.115033 0.000000 266 5
2.994516 0.181316 0.000000 267 5
2.989772 0.247511 0.000000 268 5
2.983566 0.313585 0.000000 269 5
2.975899 0.379506 0.000000 270 5
2.966776 0.445241 0.000000 271 5
2.956201 0.510757 0.000000 272 5
2.992143 0.216973 0.000000 273 5
2.986612 0.283107 0.000000 274 5
2.979619 0.349102 0.000000 275 5
2.971167 0.414927 0.000000 276 5
2.961262 0.480548 0.000000 277 5
2.949908 0.545934 0.000000 278 5
2.937110 0.611053 0.000000 279 5
2.983028 0.318662 0.000000 280 5
2.975249 0.384569 0.000000 281 5
2.966014 0.450289 0.000000 282 5
2.955328 0.515787 0.000000 283 5
2.943196 0.581034 0.000000 284 5
2.929623 0.645996 0.000000 285 5
2.914616 0.710642 0.000000 286 5
2.970457 0.419982 0.000000 287 5
2.960440 0.485587 0.000000 288 5
2.948974 0.550953 0.000000 289 5
2.936066 0.616051 0.000000 290 5
2.921720 0.680846 0.000000 291 5
2.905945 0.745309 0.000000 292 5
2.888747 0.809407 0.000000 293 5
2.999805 -0.034164 0.000000 294 6
2.999827 0.032201 0.000000 295 6
2.998381 0.098550 0.000000 296 6
2.995467 0.164851 0.000000 297 6
2.991088 0.231071 0.000000 298 6
2.985245 0.297178 0.000000 299 6
2.977941 0.363139 0.000000 300 6
2.999231 0.067931 0.000000 301 6
2.996994 0.134258 0.000000 302 6
2.993291 0.200520 0.000000 303 6
2.988123 0.266683 0.000000 304 6
2.981493 0.332716 0.000000 305 6
2.973404 0.398586 0.000000 306 6
2.963859 0.464260 0.000000 307 6
2.995182 0.169948 0.000000 308 6
2.990690 0.236160 0.000000 309 6
2.984735 0.302257 0.000000 310 6
2.977318 0.368206 0.000000 311 6
2.968445 0.433975 0.000000 312 6
2.958119 0.499532 0.000000 313 6
2.946345 0.564844 0.000000 314 6
2.987665 0.271767 0.000000 315 6
2.980922 0.337789 0.000000 316 6
2.972721 0.403645 0.000000 317 6
2.963065 0.469303 0.000000 318 6
2.951959 0.534732 0.000000 319 6
2.939408 0.599899 0.000000 320 6
2.925419 0.664773 0.000000 321 6
2.976687 0.373272 0.000000 322 6
2.967702 0.439026 0.000000 323 6
2.957265 0.504565 0.000000 324 6
2.945380 0.569857 0.000000 325 6
2.932054 0.634870 0.000000 326 6
2.917293 0.699572 0.000000 327 6
2.901104 0.763932 0.000000 328 6
2.962262 0.474345 0.000000 329 6
2.951045 0.539755 0.000000 330 6
2.938383 0.604901 0.000000 331 6
2.924284 0.669750 0.000000 332 6
2.908753 0.734272 0.000000 333 6
2.891799 0.798435 0.000000 334 6
2.873430 0.862207 0.000000 335 6
2.944406 0.574868 0.000000 336 6
2.930969 0.639859 0.000000 337 6
2.916098 0.704536 0.000000 338 6
2.899800 0.768868 0.000000 339 6
2.882083 0.832824 0.000000 340 6
2.862956 0.896373 0.000000 341 6
2.842427 0.959483 0.000000 342 6
