ply
format ascii 1.0
element vertex 707
property float x
property float y
property float z
property int group_id
end_header
0.000000 0.000000 0.000000 0
0.010000 -0.000016 0.000000 0
0.020000 -0.000063 0.000000 0
0.030000 -0.000141 0.000000 0
0.039999 -0.000251 0.000000 0
0.049998 -0.000393 0.000000 0
0.059997 -0.000565 0.000000 0
0.069996 -0.000770 0.000000 0
0.079994 -0.001005 0.000000 0
0.089991 -0.001272 0.000000 0
0.099988 -0.001571 0.000000 0
0.109984 -0.001901 0.000000 0
0.119979 -0.002262 0.000000 0
0.129973 -0.002654 0.000000 0
0.139966 -0.003079 0.000000 0
0.149958 -0.003534 0.000000 0
0.159949 -0.004021 0.000000 0
0.169939 -0.004539 0.000000 0
0.179928 -0.005089 0.000000 0
0.189915 -0.005670 0.000000 0
0.199901 -0.006282 0.000000 0
0.209886 -0.006926 0.000000 0
0.219869 -0.007601 0.000000 0
0.229850 -0.008308 0.000000 0
0.239829 -0.009046 0.000000 0
0.249807 -0.009815 0.000000 0
0.259783 -0.010616 0.000000 0
0.269757 -0.011448 0.000000 0
0.279729 -0.012311 0.000000 0
0.289699 -0.013206 0.000000 0
0.299667 -0.014132 0.000000 0
0.309633 -0.015089 0.000000 0
0.319596 -0.016078 0.000000 0
0.329557 -0.017098 0.000000 0
0.339515 -0.018150 0.000000 0
0.349471 -0.019233 0.000000 0
0.359425 -0.020347 0.000000 0
0.369375 -0.021492 0.000000 0
0.379323 -0.022669 0.000000 0
0.389268 -0.023877 0.000000 0
0.399211 -0.025116 0.000000 0
0.409150 -0.026387 0.000000 0
0.419086 -0.027689 0.000000 0
0.429019 -0.029022 0.000000 0
0.438950 -0.030386 0.000000 0
0.448876 -0.031782 0.000000 0
0.458800 -0.033209 0.000000 0
0.468720 -0.034667 0.000000 0
0.478636 -0.036157 0.000000 0
0.488549 -0.037678 0.000000 0
0.498459 -0.039230 0.000000 0
0.508364 -0.040813 0.000000 0
0.518266 -0.042427 0.000000 0
0.528164 -0.044073 0.000000 0
0.538059 -0.045750 0.000000 0
0.547949 -0.047458 0.000000 0
0.557835 -0.049197 0.000000 0
0.567717 -0.050967 0.000000 0
0.577595 -0.052769 0.000000 0
0.587468 -0.054601 0.000000 0
0.597337 -0.056465 0.000000 0
0.607202 -0.058360 0.000000 0
0.617062 -0.060286 0.000000 0
0.626918 -0.062243 0.000000 0
0.636769 -0.064231 0.000000 0
0.646615 -0.066251 0.000000 0
0.656456 -0.068301 0.000000 0
0.666293 -0.070383 0.000000 0
0.676125 -0.072496 0.000000 0
0.685951 -0.074639 0.000000 0
0.695773 -0.076814 0.000000 0
0.705589 -0.079020 0.000000 0
0.715400 -0.081257 0.000000 0
0.725206 -0.083524 0.000000 0
0.735006 -0.085823 0.000000 0
0.744801 -0.088153 0.000000 0
0.754591 -0.090514 0.000000 0
0.764375 -0.092906 0.000000 0
0.774153 -0.095328 0.000000 0
0.783925 -0.097782 0.000000 0
0.793692 -0.100267 0.000000 0
0.803452 -0.102782 0.000000 0
0.813207 -0.105329 0.000000 0
0.822956 -0.107906 0.000000 0
0.832698 -0.110514 0.000000 0
0.842435 -0.113153 0.000000 0
0.852165 -0.115823 0.000000 0
0.861889 -0.118524 0.000000 0
0.871606 -0.121255 0.000000 0
0.881317 -0.124018 0.000000 0
0.891021 -0.126811 0.000000 0
0.900719 -0.129635 0.000000 0
0.910410 -0.132490 0.000000 0
0.920094 -0.135375 0.000000 0
0.929772 -0.138292 0.000000 0
0.939442 -0.141239 0.000000 0
0.949106 -0.144217 0.000000 0
0.958762 -0.147225 0.000000 0
0.968411 -0.150264 0.000000 0
0.978054 -0.153334 0.000000 0
0.987688 -0.156434 0.000000 0
0.000000 0.000000 0.000000 1
0.010000 -0.000010 0.000000 1
0.020000 -0.000042 0.000000 1
0.030000 -0.000094 0.000000 1
0.040000 -0.000168 0.000000 1
0.049999 -0.000262 0.000000 1
0.059999 -0.000377 0.000000 1
0.069998 -0.000513 0.000000 1
0.079997 -0.000670 0.000000 1
0.089996 -0.000848 0.000000 1
0.099995 -0.001047 0.000000 1
0.109993 -0.001267 0.000000 1
0.119991 -0.001508 0.000000 1
0.129988 -0.001770 0.000000 1
0.139985 -0.002052 0.000000 1
0.149981 -0.002356 0.000000 1
0.159978 -0.002681 0.000000 1
0.169973 -0.003026 0.000000 1
0.179968 -0.003393 0.000000 1
0.189962 -0.003780 0.000000 1
0.199956 -0.004188 0.000000 1
0.209949 -0.004618 0.000000 1
0.219942 -0.005068 0.000000 1
0.229933 -0.005539 0.000000 1
0.239924 -0.006031 0.000000 1
0.249914 -0.006544 0.000000 1
0.259904 -0.007078 0.000000 1
0.269892 -0.007633 0.000000 1
0.279880 -0.008209 0.000000 1
0.289866 -0.008806 0.000000 1
0.299852 -0.009423 0.000000 1
0.309837 -0.010062 0.000000 1
0.319820 -0.010721 0.000000 1
0.329803 -0.011402 0.000000 1
0.339785 -0.012103 0.000000 1
0.349765 -0.012825 0.000000 1
0.359744 -0.013568 0.000000 1
0.369722 -0.014333 0.000000 1
0.379699 -0.015118 0.000000 1
0.389675 -0.015923 0.000000 1
0.399649 -0.016750 0.000000 1
0.409622 -0.017598 0.000000 1
0.419594 -0.018467 0.000000 1
0.429564 -0.019356 0.000000 1
0.439533 -0.020267 0.000000 1
0.449500 -0.021198 0.000000 1
0.459466 -0.022150 0.000000 1
0.469431 -0.023123 0.000000 1
0.479394 -0.024117 0.000000 1
0.489355 -0.025132 0.000000 1
0.499315 -0.026168 0.000000 1
0.509273 -0.027225 0.000000 1
0.519229 -0.028302 0.000000 1
0.529184 -0.029401 0.000000 1
0.539137 -0.030520 0.000000 1
0.549088 -0.031660 0.000000 1
0.559037 -0.032821 0.000000 1
0.568985 -0.034003 0.000000 1
0.578931 -0.035206 0.000000 1
0.588874 -0.036430 0.000000 1
0.598816 -0.037674 0.000000 1
0.608756 -0.038940 0.000000 1
0.618694 -0.040226 0.000000 1
0.628629 -0.041533 0.000000 1
0.638563 -0.042861 0.000000 1
0.648495 -0.044210 0.000000 1
0.658424 -0.045580 0.000000 1
0.668352 -0.046970 0.000000 1
0.678277 -0.048382 0.000000 1
0.688200 -0.049814 0.000000 1
0.698120 -0.051267 0.000000 1
0.708038 -0.052741 0.000000 1
0.717954 -0.054235 0.000000 1
0.727868 -0.055751 0.000000 1
0.737779 -0.057287 0.000000 1
0.747688 -0.058844 0.000000 1
0.757594 -0.060422 0.000000 1
0.767498 -0.062021 0.000000 1
0.777399 -0.063641 0.000000 1
0.787298 -0.065281 0.000000 1
0.797194 -0.066942 0.000000 1
0.807088 -0.068624 0.000000 1
0.816979 -0.070327 0.000000 1
0.826867 -0.072051 0.000000 1
0.836752 -0.073795 0.000000 1
0.846635 -0.075560 0.000000 1
0.856515 -0.077346 0.000000 1
0.866392 -0.079153 0.000000 1
0.876266 -0.080980 0.000000 1
0.886137 -0.082828 0.000000 1
0.896006 -0.084697 0.000000 1
0.905871 -0.086587 0.000000 1
0.915734 -0.088498 0.000000 1
0.925593 -0.090429 0.000000 1
0.935449 -0.092381 0.000000 1
0.945303 -0.094354 0.000000 1
0.955153 -0.096347 0.000000 1
0.965000 -0.098361 0.000000 1
0.974844 -0.100396 0.000000 1
0.984685 -0.102452 0.000000 1
0.994522 -0.104528 0.000000 1
0.000000 0.000000 0.000000 2
0.010000 -0.000005 0.000000 2
0.020000 -0.000021 0.000000 2
0.030000 -0.000047 0.000000 2
0.040000 -0.000084 0.000000 2
0.050000 -0.000131 0.000000 2
0.060000 -0.000188 0.000000 2
0.070000 -0.000257 0.000000 2
0.079999 -0.000335 0.000000 2
0.089999 -0.000424 0.000000 2
0.099999 -0.000524 0.000000 2
0.109998 -0.000634 0.000000 2
0.119998 -0.000754 0.000000 2
0.129997 -0.000885 0.000000 2
0.139996 -0.001026 0.000000 2
0.149995 -0.001178 0.000000 2
0.159994 -0.001340 0.000000 2
0.169993 -0.001513 0.000000 2
0.179992 -0.001696 0.000000 2
0.189991 -0.001890 0.000000 2
0.199989 -0.002094 0.000000 2
0.209987 -0.002309 0.000000 2
0.219985 -0.002534 0.000000 2
0.229983 -0.002770 0.000000 2
0.239981 -0.003016 0.000000 2
0.249979 -0.003272 0.000000 2
0.259976 -0.003539 0.000000 2
0.269973 -0.003817 0.000000 2
0.279970 -0.004105 0.000000 2
0.289967 -0.004403 0.000000 2
0.299963 -0.004712 0.000000 2
0.309959 -0.005032 0.000000 2
0.319955 -0.005361 0.000000 2
0.329951 -0.005702 0.000000 2
0.339946 -0.006052 0.000000 2
0.349941 -0.006414 0.000000 2
0.359936 -0.006785 0.000000 2
0.369931 -0.007168 0.000000 2
0.379925 -0.007560 0.000000 2
0.389919 -0.007963 0.000000 2
0.399912 -0.008377 0.000000 2
0.409906 -0.008801 0.000000 2
0.419898 -0.009236 0.000000 2
0.429891 -0.009681 0.000000 2
0.439883 -0.010136 0.000000 2
0.449875 -0.010602 0.000000 2
0.459867 -0.011078 0.000000 2
0.469858 -0.011565 0.000000 2
0.479848 -0.012062 0.000000 2
0.489839 -0.012570 0.000000 2
0.499829 -0.013088 0.000000 2
0.509818 -0.013617 0.000000 2
0.519807 -0.014156 0.000000 2
0.529796 -0.014706 0.000000 2
0.539784 -0.015266 0.000000 2
0.549772 -0.015837 0.000000 2
0.559759 -0.016418 0.000000 2
0.569746 -0.017009 0.000000 2
0.579733 -0.017611 0.000000 2
0.589718 -0.018224 0.000000 2
0.599704 -0.018846 0.000000 2
0.609689 -0.019480 0.000000 2
0.619673 -0.020124 0.000000 2
0.629657 -0.020778 0.000000 2
0.639641 -0.021443 0.000000 2
0.649624 -0.022118 0.000000 2
0.659606 -0.022803 0.000000 2
0.669588 -0.023500 0.000000 2
0.679569 -0.024206 0.000000 2
0.689550 -0.024923 0.000000 2
0.699530 -0.025651 0.000000 2
0.709509 -0.026389 0.000000 2
0.719488 -0.027137 0.000000 2
0.729467 -0.027896 0.000000 2
0.739445 -0.028665 0.000000 2
0.749422 -0.029445 0.000000 2
0.759398 -0.030235 0.000000 2
0.769374 -0.031036 0.000000 2
0.779350 -0.031847 0.000000 2
0.789324 -0.032668 0.000000 2
0.799298 -0.033501 0.000000 2
0.809272 -0.034343 0.000000 2
0.819244 -0.035196 0.000000 2
0.829216 -0.036059 0.000000 2
0.839188 -0.036933 0.000000 2
0.849158 -0.037818 0.000000 2
0.859128 -0.038712 0.000000 2
0.869097 -0.039617 0.000000 2
0.879066 -0.040533 0.000000 2
0.889034 -0.041459 0.000000 2
0.899001 -0.042396 0.000000 2
0.908967 -0.043343 0.000000 2
0.918933 -0.044300 0.000000 2
0.928898 -0.045268 0.000000 2
0.938862 -0.046247 0.000000 2
0.948825 -0.047235 0.000000 2
0.958787 -0.048235 0.000000 2
0.968749 -0.049244 0.000000 2
0.978710 -0.050264 0.000000 2
0.988670 -0.051295 0.000000 2
0.998630 -0.052336 0.000000 2
0.000000 0.000000 0.000000 3
0.010000 0.000000 0.000000 3
0.020000 0.000000 0.000000 3
0.030000 0.000000 0.000000 3
0.040000 0.000000 0.000000 3
0.050000 0.000000 0.000000 3
0.060000 0.000000 0.000000 3
0.070000 0.000000 0.000000 3
0.080000 0.000000 0.000000 3
0.090000 0.000000 0.000000 3
0.100000 0.000000 0.000000 3
0.110000 0.000000 0.000000 3
0.120000 0.000000 0.000000 3
0.130000 0.000000 0.000000 3
0.140000 0.000000 0.000000 3
0.150000 0.000000 0.000000 3
0.160000 0.000000 0.000000 3
0.170000 0.000000 0.000000 3
0.180000 0.000000 0.000000 3
0.190000 0.000000 0.000000 3
0.200000 0.000000 0.000000 3
0.210000 0.000000 0.000000 3
0.220000 0.000000 0.000000 3
0.230000 0.000000 0.000000 3
0.240000 0.000000 0.000000 3
0.250000 0.000000 0.000000 3
0.260000 0.000000 0.000000 3
0.270000 0.000000 0.000000 3
0.280000 0.000000 0.000000 3
0.290000 0.000000 0.000000 3
0.300000 0.000000 0.000000 3
0.310000 0.000000 0.000000 3
0.320000 0.000000 0.000000 3
0.330000 0.000000 0.000000 3
0.340000 0.000000 0.000000 3
0.350000 0.000000 0.000000 3
0.360000 0.000000 0.000000 3
0.370000 0.000000 0.000000 3
0.380000 0.000000 0.000000 3
0.390000 0.000000 0.000000 3
0.400000 0.000000 0.000000 3
0.410000 0.000000 0.000000 3
0.420000 0.000000 0.000000 3
0.430000 0.000000 0.000000 3
0.440000 0.000000 0.000000 3
0.450000 0.000000 0.000000 3
0.460000 0.000000 0.000000 3
0.470000 0.000000 0.000000 3
0.480000 0.000000 0.000000 3
0.490000 0.000000 0.000000 3
0.500000 0.000000 0.000000 3
0.510000 0.000000 0.000000 3
0.520000 0.000000 0.000000 3
0.530000 0.000000 0.000000 3
0.540000 0.000000 0.000000 3
0.550000 0.000000 0.000000 3
0.560000 0.000000 0.000000 3
0.570000 0.000000 0.000000 3
0.580000 0.000000 0.000000 3
0.590000 0.000000 0.000000 3
0.600000 0.000000 0.000000 3
0.610000 0.000000 0.000000 3
0.620000 0.000000 0.000000 3
0.630000 0.000000 0.000000 3
0.640000 0.000000 0.000000 3
0.650000 0.000000 0.000000 3
0.660000 0.000000 0.000000 3
0.670000 0.000000 0.000000 3
0.680000 0.000000 0.000000 3
0.690000 0.000000 0.000000 3
0.700000 0.000000 0.000000 3
0.710000 0.000000 0.000000 3
0.720000 0.000000 0.000000 3
0.730000 0.000000 0.000000 3
0.740000 0.000000 0.000000 3
0.750000 0.000000 0.000000 3
0.760000 0.000000 0.000000 3
0.770000 0.000000 0.000000 3
0.780000 0.000000 0.000000 3
0.790000 0.000000 0.000000 3
0.800000 0.000000 0.000000 3
0.810000 0.000000 0.000000 3
0.820000 0.000000 0.000000 3
0.830000 0.000000 0.000000 3
0.840000 0.000000 0.000000 3
0.850000 0.000000 0.000000 3
0.860000 0.000000 0.000000 3
0.870000 0.000000 0.000000 3
0.880000 0.000000 0.000000 3
0.890000 0.000000 0.000000 3
0.900000 0.000000 0.000000 3
0.910000 0.000000 0.000000 3
0.920000 0.000000 0.000000 3
0.930000 0.000000 0.000000 3
0.940000 0.000000 0.000000 3
0.950000 0.000000 0.000000 3
0.960000 0.000000 0.000000 3
0.970000 0.000000 0.000000 3
0.980000 0.000000 0.000000 3
0.990000 0.000000 0.000000 3
1.000000 0.000000 0.000000 3
0.000000 0.000000 0.000000 4
0.010000 0.000005 0.000000 4
0.020000 0.000021 0.000000 4
0.030000 0.000047 0.000000 4
0.040000 0.000084 0.000000 4
0.050000 0.000131 0.000000 4
0.060000 0.000188 0.000000 4
0.070000 0.000257 0.000000 4
0.079999 0.000335 0.000000 4
0.089999 0.000424 0.000000 4
0.099999 0.000524 0.000000 4
0.109998 0.000634 0.000000 4
0.119998 0.000754 0.000000 4
0.129997 0.000885 0.000000 4
0.139996 0.001026 0.000000 4
0.149995 0.001178 0.000000 4
0.159994 0.001340 0.000000 4
0.169993 0.001513 0.000000 4
0.179992 0.001696 0.000000 4
0.189991 0.001890 0.000000 4
0.199989 0.002094 0.000000 4
0.209987 0.002309 0.000000 4
0.219985 0.002534 0.000000 4
0.229983 0.002770 0.000000 4
0.239981 0.003016 0.000000 4
0.249979 0.003272 0.000000 4
0.259976 0.003539 0.000000 4
0.269973 0.003817 0.000000 4
0.279970 0.004105 0.000000 4
0.289967 0.004403 0.000000 4
0.299963 0.004712 0.000000 4
0.309959 0.005032 0.000000 4
0.319955 0.005361 0.000000 4
0.329951 0.005702 0.000000 4
0.339946 0.006052 0.000000 4
0.349941 0.006414 0.000000 4
0.359936 0.006785 0.000000 4
0.369931 0.007168 0.000000 4
0.379925 0.007560 0.000000 4
0.389919 0.007963 0.000000 4
0.399912 0.008377 0.000000 4
0.409906 0.008801 0.000000 4
0.419898 0.009236 0.000000 4
0.429891 0.009681 0.000000 4
0.439883 0.010136 0.000000 4
0.449875 0.010602 0.000000 4
0.459867 0.011078 0.000000 4
0.469858 0.011565 0.000000 4
0.479848 0.012062 0.000000 4
0.489839 0.012570 0.000000 4
0.499829 0.013088 0.000000 4
0.509818 0.013617 0.000000 4
0.519807 0.014156 0.000000 4
0.529796 0.014706 0.000000 4
0.539784 0.015266 0.000000 4
0.549772 0.015837 0.000000 4
0.559759 0.016418 0.000000 4
0.569746 0.017009 0.000000 4
0.579733 0.017611 0.000000 4
0.589718 0.018224 0.000000 4
0.599704 0.018846 0.000000 4
0.609689 0.019480 0.000000 4
0.619673 0.020124 0.000000 4
0.629657 0.020778 0.000000 4
0.639641 0.021443 0.000000 4
0.649624 0.022118 0.000000 4
0.659606 0.022803 0.000000 4
0.669588 0.023500 0.000000 4
0.679569 0.024206 0.000000 4
0.689550 0.024923 0.000000 4
0.699530 0.025651 0.000000 4
0.709509 0.026389 0.000000 4
0.719488 0.027137 0.000000 4
0.729467 0.027896 0.000000 4
0.739445 0.028665 0.000000 4
0.749422 0.029445 0.000000 4
0.759398 0.030235 0.000000 4
0.769374 0.031036 0.000000 4
0.779350 0.031847 0.000000 4
0.789324 0.032668 0.000000 4
0.799298 0.033501 0.000000 4
0.809272 0.034343 0.000000 4
0.819244 0.035196 0.000000 4
0.829216 0.036059 0.000000 4
0.839188 0.036933 0.000000 4
0.849158 0.037818 0.000000 4
0.859128 0.038712 0.000000 4
0.869097 0.039617 0.000000 4
0.879066 0.040533 0.000000 4
0.889034 0.041459 0.000000 4
0.899001 0.042396 0.000000 4
0.908967 0.043343 0.000000 4
0.918933 0.044300 0.000000 4
0.928898 0.045268 0.000000 4
0.938862 0.046247 0.000000 4
0.948825 0.047235 0.000000 4
0.958787 0.048235 0.000000 4
0.968749 0.049244 0.000000 4
0.978710 0.050264 0.000000 4
0.988670 0.051295 0.000000 4
0.998630 0.052336 0.000000 4
0.000000 0.000000 0.000000 5
0.010000 0.000010 0.000000 5
0.020000 0.000042 0.000000 5
0.030000 0.000094 0.000000 5
0.040000 0.000168 0.000000 5
0.049999 0.000262 0.000000 5
0.059999 0.000377 0.000000 5
0.069998 0.000513 0.000000 5
0.079997 0.000670 0.000000 5
0.089996 0.000848 0.000000 5
0.099995 0.001047 0.000000 5
0.109993 0.001267 0.000000 5
0.119991 0.001508 0.000000 5
0.129988 0.001770 0.000000 5
0.139985 0.002052 0.000000 5
0.149981 0.002356 0.000000 5
0.159978 0.002681 0.000000 5
0.169973 0.003026 0.000000 5
0.179968 0.003393 0.000000 5
0.189962 0.003780 0.000000 5
0.199956 0.004188 0.000000 5
0.209949 0.004618 0.000000 5
0.219942 0.005068 0.000000 5
0.229933 0.005539 0.000000 5
0.239924 0.006031 0.000000 5
0.249914 0.006544 0.000000 5
0.259904 0.007078 0.000000 5
0.269892 0.007633 0.000000 5
0.279880 0.008209 0.000000 5
0.289866 0.008806 0.000000 5
0.299852 0.009423 0.000000 5
0.309837 0.010062 0.000000 5
0.319820 0.010721 0.000000 5
0.329803 0.011402 0.000000 5
0.339785 0.012103 0.000000 5
0.349765 0.012825 0.000000 5
0.359744 0.013568 0.000000 5
0.369722 0.014333 0.000000 5
0.379699 0.015118 0.000000 5
0.389675 0.015923 0.000000 5
0.399649 0.016750 0.000000 5
0.409622 0.017598 0.000000 5
0.419594 0.018467 0.000000 5
0.429564 0.019356 0.000000 5
0.439533 0.020267 0.000000 5
0.449500 0.021198 0.000000 5
0.459466 0.022150 0.000000 5
0.469431 0.023123 0.000000 5
0.479394 0.024117 0.000000 5
0.489355 0.025132 0.000000 5
0.499315 0.026168 0.000000 5
0.509273 0.027225 0.000000 5
0.519229 0.028302 0.000000 5
0.529184 0.029401 0.000000 5
0.539137 0.030520 0.000000 5
0.549088 0.031660 0.000000 5
0.559037 0.032821 0.000000 5
0.568985 0.034003 0.000000 5
0.578931 0.035206 0.000000 5
0.588874 0.036430 0.000000 5
0.598816 0.037674 0.000000 5
0.608756 0.038940 0.000000 5
0.618694 0.040226 0.000000 5
0.628629 0.041533 0.000000 5
0.638563 0.042861 0.000000 5
0.648495 0.044210 0.000000 5
0.658424 0.045580 0.000000 5
0.668352 0.046970 0.000000 5
0.678277 0.048382 0.000000 5
0.688200 0.049814 0.000000 5
0.698120 0.051267 0.000000 5
0.708038 0.052741 0.000000 5
0.717954 0.054235 0.000000 5
0.727868 0.055751 0.000000 5
0.737779 0.057287 0.000000 5
0.747688 0.058844 0.000000 5
0.757594 0.060422 0.000000 5
0.767498 0.062021 0.000000 5
0.777399 0.063641 0.000000 5
0.787298 0.065281 0.000000 5
0.797194 0.066942 0.000000 5
0.807088 0.068624 0.000000 5
0.816979 0.070327 0.000000 5
0.826867 0.072051 0.000000 5
0.836752 0.073795 0.000000 5
0.846635 0.075560 0.000000 5
0.856515 0.077346 0.000000 5
0.866392 0.079153 0.000000 5
0.876266 0.080980 0.000000 5
0.886137 0.082828 0.000000 5
0.896006 0.084697 0.000000 5
0.905871 0.086587 0.000000 5
0.915734 0.088498 0.000000 5
0.925593 0.090429 0.000000 5
0.935449 0.092381 0.000000 5
0.945303 0.094354 0.000000 5
0.955153 0.096347 0.000000 5
0.965000 0.098361 0.000000 5
0.974844 0.100396 0.000000 5
0.984685 0.102452 0.000000 5
0.994522 0.104528 0.000000 5
0.000000 0.000000 0.000000 6
0.010000 0.000016 0.000000 6
0.020000 0.000063 0.000000 6
0.030000 0.000141 0.000000 6
0.039999 0.000251 0.000000 6
0.049998 0.000393 0.000000 6
0.059997 0.000565 0.000000 6
0.069996 0.000770 0.000000 6
0.079994 0.001005 0.000000 6
0.089991 0.001272 0.000000 6
0.099988 0.001571 0.000000 6
0.109984 0.001901 0.000000 6
0.119979 0.002262 0.000000 6
0.129973 0.002654 0.000000 6
0.139966 0.003079 0.000000 6
0.149958 0.003534 0.000000 6
0.159949 0.004021 0.000000 6
0.169939 0.004539 0.000000 6
0.179928 0.005089 0.000000 6
0.189915 0.005670 0.000000 6
0.199901 0.006282 0.000000 6
0.209886 0.006926 0.000000 6
0.219869 0.007601 0.000000 6
0.229850 0.008308 0.000000 6
0.239829 0.009046 0.000000 6
0.249807 0.009815 0.000000 6
0.259783 0.010616 0.000000 6
0.269757 0.011448 0.000000 6
0.279729 0.012311 0.000000 6
0.289699 0.013206 0.000000 6
0.299667 0.014132 0.000000 6
0.309633 0.015089 0.000000 6
0.319596 0.016078 0.000000 6
0.329557 0.017098 0.000000 6
0.339515 0.018150 0.000000 6
0.349471 0.019233 0.000000 6
0.359425 0.020347 0.000000 6
0.369375 0.021492 0.000000 6
0.379323 0.022669 0.000000 6
0.389268 0.023877 0.000000 6
0.399211 0.025116 0.000000 6
0.409150 0.026387 0.000000 6
0.419086 0.027689 0.000000 6
0.429019 0.029022 0.000000 6
0.438950 0.030386 0.000000 6
0.448876 0.031782 0.000000 6
0.458800 0.033209 0.000000 6
0.468720 0.034667 0.000000 6
0.478636 0.036157 0.000000 6
0.488549 0.037678 0.000000 6
0.498459 0.039230 0.000000 6
0.508364 0.040813 0.000000 6
0.518266 0.042427 0.000000 6
0.528164 0.044073 0.000000 6
0.538059 0.045750 0.000000 6
0.547949 0.047458 0.000000 6
0.557835 0.049197 0.000000 6
0.567717 0.050967 0.000000 6
0.577595 0.052769 0.000000 6
0.587468 0.054601 0.000000 6
0.597337 0.056465 0.000000 6
0.607202 0.058360 0.000000 6
0.617062 0.060286 0.000000 6
0.626918 0.062243 0.000000 6
0.636769 0.064231 0.000000 6
0.646615 0.066251 0.000000 6
0.656456 0.068301 0.000000 6
0.666293 0.070383 0.000000 6
0.676125 0.072496 0.000000 6
0.685951 0.074639 0.000000 6
0.695773 0.076814 0.000000 6
0.705589 0.079020 0.000000 6
0.715400 0.081257 0.000000 6
0.725206 0.083524 0.000000 6
0.735006 0.085823 0.000000 6
0.744801 0.088153 0.000000 6
0.754591 0.090514 0.000000 6
0.764375 0.092906 0.000000 6
0.774153 0.095328 0.000000 6
0.783925 0.097782 0.000000 6
0.793692 0.100267 0.000000 6
0.803452 0.102782 0.000000 6
0.813207 0.105329 0.000000 6
0.822956 0.107906 0.000000 6
0.832698 0.110514 0.000000 6
0.842435 0.113153 0.000000 6
0.852165 0.115823 0.000000 6
0.861889 0.118524 0.000000 6
0.871606 0.121255 0.000000 6
0.881317 0.124018 0.000000 6
0.891021 0.126811 0.000000 6
0.900719 0.129635 0.000000 6
0.910410 0.132490 0.000000 6
0.920094 0.135375 0.000000 6
0.929772 0.138292 0.000000 6
0.939442 0.141239 0.000000 6
0.949106 0.144217 0.000000 6
0.958762 0.147225 0.000000 6
0.968411 0.150264 0.000000 6
0.978054 0.153334 0.000000 6
0.987688 0.156434 0.000000 6
