ply
format ascii 1.0
element vertex 24
property float x
property float y
property float z
property float poly_index
end_header
-7.0  -3.0  0.0  0
8.0  -3.0  0.0  0
8.0  40.0  0.0  0
-7.0  40.0  0.0  0
-1.0  -2.33  0.0  1
-1.0  -1.33  0.0  1
6.29  -1.33  0.0  1
6.29  34.89  0.0  1
7.29  34.89  0.0  1
7.29  -2.33  0.0  1
-1.0  1.46  0.0  2
0.68  1.46  0.0  2
0.68  3.89  0.0  2
4.51  3.89  0.0  2
4.51  34.89  0.0 2
-5.34  34.89  0.0 2
-5.34  34.89  0.0 3
-6.34  34.89  0.0 3
-6.34  39.84  0.0 3
7.29  39.84  0.0  3
7.29  35.79  0.0 3
-2.08  35.79  0.0 3
-2.08  38.84  0.0 3
-5.34  38.84  0.0 3




